<svg xmlns:xlink="http://www.w3.org/1999/xlink" class="w-16 h-16 lg:w-20 lg:h-20 rounded-2xl lg:rounded-3xl shadow-nav bg-wash" viewBox="0 0 120 120" fill="none" xmlns="http://www.w3.org/2000/svg" width="120"  height="120" ><path d="M22.1378 84.6843C19.1119 84.6843 16 87.1151 16 91.363C16 95.259 18.7358 98 22.1378 98C24.9457 98 26.1963 96.1105 26.1963 96.1105V96.9286C26.2071 97.1436 26.2971 97.3469 26.4489 97.4991C26.6008 97.6513 26.8036 97.7416 27.018 97.7523H29.0473V84.9626H26.1963V86.5864C26.1963 86.5864 24.9346 84.6843 22.1378 84.6843ZM22.6458 87.3002C25.1359 87.3002 26.4434 89.4958 26.4434 91.3686C26.4434 93.4557 24.8916 95.4371 22.65 95.4371C20.7775 95.4371 18.9023 93.9163 18.9023 91.3422C18.9009 89.0102 20.5152 87.2932 22.6458 87.2932V87.3002Z" fill="black"></path><path d="M33.01 97.7636C32.9013 97.7667 32.793 97.7475 32.692 97.7072C32.5909 97.6669 32.4991 97.6063 32.4222 97.5292C32.3452 97.4521 32.2848 97.3601 32.2446 97.2587C32.2044 97.1574 32.1852 97.0489 32.1883 96.9399V84.9628H35.0407V86.5462C35.6861 85.5722 36.9478 84.6692 38.8855 84.6692C42.0529 84.6692 43.7435 87.1988 43.7435 89.5655V97.7636H41.7573C41.5268 97.7625 41.3061 97.6703 41.1431 97.5069C40.9801 97.3435 40.8881 97.1223 40.887 96.8912V90.2C40.887 88.8893 40.0861 87.2962 38.2317 87.2962C36.2316 87.2962 35.0393 89.1912 35.0393 90.975V97.7636H33.01Z" fill="black"></path><path d="M52.0506 84.6843C49.0248 84.6843 45.9128 87.1151 45.9128 91.363C45.9128 95.259 48.6486 98 52.0506 98C54.8641 98 56.1133 96.1105 56.1133 96.1105V96.9286C56.1241 97.1436 56.2141 97.3469 56.3659 97.4991C56.5178 97.6513 56.7206 97.7416 56.9351 97.7523H58.9643V78.5747H56.1133V86.5919C56.1133 86.5919 54.8475 84.6843 52.0506 84.6843ZM52.5586 87.3002C55.0487 87.3002 56.3562 89.4958 56.3562 91.3686C56.3562 93.4557 54.8045 95.4371 52.5628 95.4371C50.6904 95.4371 48.8152 93.9163 48.8152 91.3422C48.8138 89.0102 50.4225 87.2932 52.5586 87.2932V87.3002Z" fill="black"></path><path d="M62.9232 97.7634C62.8145 97.7665 62.7064 97.7473 62.6054 97.707C62.5044 97.6667 62.4126 97.6061 62.3358 97.5289C62.259 97.4518 62.1987 97.3598 62.1587 97.2584C62.1186 97.1571 62.0996 97.0487 62.1029 96.9397V84.9626H64.9539V87.0942C65.4438 85.9004 66.5029 84.8179 68.385 84.8179C68.7253 84.8211 69.0648 84.8532 69.3997 84.9139V87.8692C68.9654 87.7128 68.5078 87.631 68.0464 87.6271C66.0462 87.6271 64.9539 89.5222 64.9539 91.3073V97.7634H62.9232Z" fill="black"></path><path d="M86.6997 97.7635C86.591 97.7668 86.4826 97.7477 86.3815 97.7075C86.2803 97.6673 86.1884 97.6067 86.1114 97.5295C86.0345 97.4524 85.9741 97.3603 85.9339 97.2589C85.8938 97.1574 85.8748 97.0489 85.878 96.9398V84.9626H88.7318V97.7635H86.6997Z" fill="black"></path><path d="M97.089 84.6843C94.0632 84.6843 90.9526 87.1151 90.9526 91.363C90.9526 95.259 93.6884 98 97.089 98C99.897 98 101.149 96.1105 101.149 96.1105V96.9286C101.16 97.1436 101.25 97.3469 101.402 97.4991C101.553 97.6513 101.756 97.7416 101.971 97.7523H104V78.5747H101.149V86.5919C101.149 86.5919 99.8873 84.6843 97.089 84.6843ZM97.5971 87.3002C100.095 87.3002 101.395 89.4958 101.395 91.3686C101.395 93.4557 99.8429 95.4371 97.6026 95.4371C95.7288 95.4371 93.855 93.9163 93.855 91.3422C93.8536 89.0102 95.4678 87.2932 97.5971 87.2932V87.3002Z" fill="black"></path><path d="M87.2813 82.2103C88.3231 82.2103 89.1676 81.3637 89.1676 80.3194C89.1676 79.2751 88.3231 78.4285 87.2813 78.4285C86.2395 78.4285 85.395 79.2751 85.395 80.3194C85.395 81.3637 86.2395 82.2103 87.2813 82.2103Z" fill="black"></path><path d="M76.9184 84.6731C73.7496 84.6731 70.2712 87.0496 70.2712 91.3407C70.2712 95.2547 73.236 97.9999 76.9143 97.9999C81.4475 97.9999 83.66 94.3475 83.66 91.3643C83.66 87.705 80.8104 84.6731 76.9212 84.6731H76.9184ZM76.9282 87.3432C79.1198 87.3432 80.7549 89.1131 80.7549 91.3476C80.7549 93.6226 79.0199 95.3827 76.9351 95.3827C75.0002 95.3827 73.1194 93.8035 73.1194 91.3922C73.1194 88.9405 74.9086 87.3488 76.9282 87.3488V87.3432Z" fill="black"></path><path d="M81.4769 35.895L88.7723 23.2263C88.9677 22.8863 89.021 22.4826 88.9207 22.1034C88.8203 21.7241 88.5743 21.4 88.2365 21.2018C88.0696 21.1035 87.8848 21.0394 87.693 21.0133C87.5011 20.9871 87.306 20.9993 87.119 21.0493C86.9319 21.0992 86.7566 21.1859 86.6031 21.3043C86.4497 21.4227 86.3213 21.5704 86.2253 21.7389L78.8355 34.5704C73.196 31.988 66.85 30.5493 60.0237 30.5493C53.1975 30.5493 46.8501 31.988 41.212 34.5704L33.8208 21.7389C33.7265 21.565 33.5983 21.4118 33.4439 21.2884C33.2895 21.165 33.1119 21.0739 32.9217 21.0205C32.7316 20.9671 32.5326 20.9524 32.3367 20.9774C32.1408 21.0025 31.9519 21.0666 31.7811 21.1661C31.6104 21.2656 31.4613 21.3984 31.3427 21.5567C31.224 21.715 31.1383 21.8955 31.0904 22.0876C31.0426 22.2797 31.0337 22.4794 31.0643 22.675C31.0948 22.8706 31.1642 23.0581 31.2683 23.2263L38.5623 35.895C25.9827 42.7268 17.4645 55.4915 16.0557 70.4337H104C102.587 55.4915 94.0661 42.7268 81.4769 35.895ZM39.8365 58.053C39.1072 58.0533 38.3943 57.8368 37.7878 57.4308C37.1814 57.0248 36.7086 56.4477 36.4294 55.7723C36.1502 55.097 36.0771 54.3538 36.2193 53.6368C36.3615 52.9199 36.7126 52.2612 37.2283 51.7443C37.744 51.2274 38.401 50.8754 39.1162 50.7329C39.8315 50.5903 40.5728 50.6636 41.2465 50.9435C41.9202 51.2234 42.496 51.6973 42.9009 52.3052C43.3059 52.9131 43.5219 53.6278 43.5217 54.3589C43.5209 55.3389 43.132 56.2785 42.4405 56.9712C41.749 57.6639 40.8113 58.053 39.8337 58.053H39.8365ZM80.2068 58.053C79.4776 58.053 78.7648 57.8363 78.1585 57.4301C77.5523 57.024 77.0798 56.4467 76.8008 55.7714C76.5218 55.096 76.4488 54.3529 76.5912 53.636C76.7336 52.9191 77.0848 52.2606 77.6005 51.7438C78.1162 51.2271 78.7733 50.8752 79.4885 50.7328C80.2037 50.5903 80.945 50.6637 81.6186 50.9436C82.2922 51.2235 82.8679 51.6974 83.2728 52.3053C83.6777 52.9133 83.8937 53.6279 83.8934 54.3589C83.8932 54.8443 83.7976 55.3249 83.6121 55.7733C83.4266 56.2217 83.1548 56.629 82.8122 56.9721C82.4695 57.3152 82.0629 57.5872 81.6154 57.7727C81.1679 57.9581 80.6883 58.0534 80.2041 58.053H80.2068Z" fill="#32DE84"></path></svg>