<svg xmlns:xlink="http://www.w3.org/1999/xlink" class="w-16 h-16 lg:w-20 lg:h-20 rounded-2xl lg:rounded-3xl shadow-nav bg-wash" viewBox="0 0 120 120" fill="none" xmlns="http://www.w3.org/2000/svg" width="120"  height="120" ><path d="M89.9356 44.0658C89.4752 44.4231 81.3451 49.0042 81.3451 59.1906C81.3451 70.9729 91.6903 75.1411 91.9999 75.2443C91.9523 75.4984 90.3564 80.9529 86.5455 86.5105C83.1474 91.4013 79.5984 96.2841 74.1995 96.2841C68.8006 96.2841 67.4112 93.148 61.1787 93.148C55.105 93.148 52.9454 96.3873 48.007 96.3873C43.0686 96.3873 39.6229 91.8618 35.6611 86.3041C31.072 79.7778 27.3643 69.639 27.3643 60.0163C27.3643 44.5819 37.3998 36.3963 47.2766 36.3963C52.5246 36.3963 56.8993 39.842 60.1942 39.842C63.3303 39.842 68.221 36.1898 74.1916 36.1898C76.4543 36.1898 84.5844 36.3963 89.9356 44.0658ZM71.3572 29.6556C73.8264 26.7259 75.573 22.6609 75.573 18.5958C75.573 18.0321 75.5254 17.4605 75.4222 17C71.4048 17.1509 66.6252 19.6756 63.7432 23.0182C61.4804 25.5906 59.3685 29.6556 59.3685 33.7762C59.3685 34.3955 59.4717 35.0148 59.5193 35.2133C59.7734 35.2609 60.1863 35.3165 60.5991 35.3165C64.2036 35.3165 68.7371 32.9029 71.3572 29.6556Z" fill="black"></path></svg>