<svg xmlns:xlink="http://www.w3.org/1999/xlink" class="w-16 h-16 lg:w-20 lg:h-20 rounded-2xl lg:rounded-3xl shadow-nav bg-wash" viewBox="0 0 120 120" fill="none" xmlns="http://www.w3.org/2000/svg" width="120"  height="120" ><g clip-path="url(#ee)" fill="none"><path d="m60 81.99c12.15 0 22-9.8497 22-22 0-12.15-9.8497-22-22-22s-22 9.8498-22 22c0 12.15 9.8497 22 22 22z" fill="#FFFFFF"></path><path d="m60 38h38.099c-3.8606-6.6892-9.4144-12.244-16.103-16.106-6.6884-3.862-14.276-5.8948-21.999-5.8943-7.7232 5e-4 -15.31 2.0345-21.998 5.8973-6.6879 3.8629-12.241 9.4184-16.101 16.108l19.05 32.995 0.017-0.0044c-1.9378-3.3417-2.9604-7.1352-2.9648-10.998-0.0043-3.8629 1.0098-7.6586 2.9401-11.005 1.9303-3.346 4.7086-6.124 8.0548-8.0539 3.3463-1.93 7.1422-2.9437 11.005-2.9389z" fill="url(&quot;#cc&quot;)"></path><path d="m60 77.417c9.619 0 17.417-7.7977 17.417-17.417 0-9.6189-7.7977-17.417-17.417-17.417-9.6189 0-17.417 7.7977-17.417 17.417 0 9.619 7.7977 17.417 17.417 17.417z" fill="#1A73E8"></path><path d="m79.05 71.006-19.05 32.994c7.7233 1e-3 15.311-2.031 21.999-5.8925 6.6886-3.8614 12.243-9.4158 16.104-16.105 3.8607-6.6888 5.8927-14.276 5.8917-22-1e-3 -7.7232-2.036-15.31-5.8996-21.997h-38.099l-0.0045 0.017c3.8629-0.0074 7.6595 1.0036 11.007 2.9313 3.3476 1.9277 6.1278 4.7038 8.0604 8.0485s2.9492 7.1398 2.9474 11.003c-0.0017 3.8629-1.0219 7.657-2.9575 11z" fill="url(&quot;#bb&quot;)"></path><path d="m40.949 71.006-19.049-32.995c-3.8626 6.688-5.8963 14.275-5.8966 21.998s2.0328 15.31 5.8949 21.999 9.4171 12.242 16.106 16.102c6.6893 3.8603 14.277 5.8913 22 5.8893l19.049-32.994-0.0123-0.0124c-1.925 3.349-4.699 6.1314-8.0422 8.0666s-7.1375 2.9549-11 2.9562-7.6579-1.0158-11.002-2.9488c-3.3445-1.9329-6.1203-4.7134-8.0476-8.0612z" fill="url(&quot;#aa&quot;)"></path></g><defs><linearGradient id="cc" x1="21.898" x2="98.099" y1="43.5" y2="43.5" gradientUnits="userSpaceOnUse"><stop stop-color="#D93025" offset="0"></stop><stop stop-color="#EA4335" offset="1"></stop></linearGradient><linearGradient id="bb" x1="53.99" x2="92.09" y1="103.41" y2="37.42" gradientUnits="userSpaceOnUse"><stop stop-color="#FCC934" offset="0"></stop><stop stop-color="#FBBC04" offset="1"></stop></linearGradient><linearGradient id="aa" x1="64.763" x2="26.663" y1="101.25" y2="35.261" gradientUnits="userSpaceOnUse"><stop stop-color="#1E8E3E" offset="0"></stop><stop stop-color="#34A853" offset="1"></stop></linearGradient><clipPath id="ee"><rect transform="translate(16 16)" width="88" height="88" fill="#fff"></rect></clipPath><linearGradient id="cc" x1="21.898" x2="98.099" y1="43.5" y2="43.5" gradientUnits="userSpaceOnUse"><stop stop-color="#D93025" offset="0"></stop><stop stop-color="#EA4335" offset="1"></stop></linearGradient><linearGradient id="bb" x1="53.99" x2="92.09" y1="103.41" y2="37.42" gradientUnits="userSpaceOnUse"><stop stop-color="#FCC934" offset="0"></stop><stop stop-color="#FBBC04" offset="1"></stop></linearGradient><linearGradient id="aa" x1="64.763" x2="26.663" y1="101.25" y2="35.261" gradientUnits="userSpaceOnUse"><stop stop-color="#1E8E3E" offset="0"></stop><stop stop-color="#34A853" offset="1"></stop></linearGradient><linearGradient id="cc" x1="21.898" x2="98.099" y1="43.5" y2="43.5" gradientUnits="userSpaceOnUse"><stop stop-color="#D93025" offset="0"></stop><stop stop-color="#EA4335" offset="1"></stop></linearGradient><linearGradient id="bb" x1="53.99" x2="92.09" y1="103.41" y2="37.42" gradientUnits="userSpaceOnUse"><stop stop-color="#FCC934" offset="0"></stop><stop stop-color="#FBBC04" offset="1"></stop></linearGradient><linearGradient id="aa" x1="64.763" x2="26.663" y1="101.25" y2="35.261" gradientUnits="userSpaceOnUse"><stop stop-color="#1E8E3E" offset="0"></stop><stop stop-color="#34A853" offset="1"></stop></linearGradient><linearGradient id="cc" x1="21.898" x2="98.099" y1="43.5" y2="43.5" gradientUnits="userSpaceOnUse"><stop stop-color="#D93025" offset="0"></stop><stop stop-color="#EA4335" offset="1"></stop></linearGradient><linearGradient id="bb" x1="53.99" x2="92.09" y1="103.41" y2="37.42" gradientUnits="userSpaceOnUse"><stop stop-color="#FCC934" offset="0"></stop><stop stop-color="#FBBC04" offset="1"></stop></linearGradient><linearGradient id="aa" x1="64.763" x2="26.663" y1="101.25" y2="35.261" gradientUnits="userSpaceOnUse"><stop stop-color="#1E8E3E" offset="0"></stop><stop stop-color="#34A853" offset="1"></stop></linearGradient><linearGradient id="cc" x1="21.898" x2="98.099" y1="43.5" y2="43.5" gradientUnits="userSpaceOnUse"><stop stop-color="#D93025" offset="0"></stop><stop stop-color="#EA4335" offset="1"></stop></linearGradient><linearGradient id="bb" x1="53.99" x2="92.09" y1="103.41" y2="37.42" gradientUnits="userSpaceOnUse"><stop stop-color="#FCC934" offset="0"></stop><stop stop-color="#FBBC04" offset="1"></stop></linearGradient><linearGradient id="aa" x1="64.763" x2="26.663" y1="101.25" y2="35.261" gradientUnits="userSpaceOnUse"><stop stop-color="#1E8E3E" offset="0"></stop><stop stop-color="#34A853" offset="1"></stop></linearGradient></defs></svg>