<?xml version="1.0" encoding="iso-8859-1"?>
<!-- Uploaded to: SVG Repo, www.svgrepo.com, Generator: SVG Repo Mixer Tools -->
<svg height="800px" width="800px" version="1.1" id="Layer_1" xmlns="http://www.w3.org/2000/svg" xmlns:xlink="http://www.w3.org/1999/xlink" 
	 viewBox="0 0 511.999 511.999" xml:space="preserve">
<path style="fill:#E6563A;" d="M437.857,74.143c15.51,15.51,21.776,36.176,18.183,56.165c19.562,5.427,35.468,20.044,42.718,40.752
	c7.234,20.693,3.913,42.027-7.996,58.488c15.203,13.314,23.25,33.459,20.802,55.24c-2.455,21.789-14.697,39.578-32.574,49.233
	c7.957,18.695,6.446,40.239-5.221,58.807c-11.664,18.564-30.421,29.271-50.718,30.22c-0.948,20.297-11.656,39.054-30.22,50.718
	c-18.564,11.664-40.107,13.175-58.807,5.221c-9.655,17.876-27.446,30.118-49.233,32.574c-21.777,2.46-41.921-5.571-55.24-20.802
	c-16.462,11.908-37.796,15.23-58.488,7.996c-20.701-7.258-35.325-23.156-40.752-42.718c-19.99,3.594-40.655-2.673-56.165-18.183
	l-0.008-0.008c-15.502-15.502-21.769-36.168-18.176-56.157c-19.57-5.435-35.476-20.051-42.718-40.752
	c-7.234-20.693-3.913-42.027,7.996-58.489C6.013,269.111-2.015,248.994,0.437,227.208c2.455-21.788,14.697-39.579,32.574-49.233
	c-7.957-18.695-6.446-40.239,5.221-58.807c11.664-18.564,30.421-29.271,50.718-30.22c0.947-20.297,11.656-39.054,30.22-50.718
	s40.107-13.175,58.807-5.221c9.655-17.876,27.446-30.118,49.233-32.574c21.773-2.455,41.902,5.606,55.24,20.802
	c16.462-11.908,37.796-15.23,58.489-7.996c20.693,7.25,35.317,23.148,40.752,42.718C401.681,52.365,422.355,58.64,437.857,74.143z"
	/>
<path style="fill:#D9472B;" d="M478.988,334.022c17.876-9.655,30.118-27.446,32.575-49.233c2.447-21.78-5.599-41.926-20.801-55.24
	c11.908-16.462,15.23-37.796,7.996-58.488c-7.25-20.709-23.157-35.325-42.719-40.752c3.595-19.99-2.671-40.654-18.182-56.164
	L74.145,437.855c15.51,15.51,36.176,21.776,56.165,18.182c5.427,19.562,20.051,35.46,40.752,42.718
	c20.693,7.234,42.026,3.913,58.488-7.995c13.319,15.23,33.465,23.261,55.239,20.801c21.789-2.455,39.58-14.698,49.233-32.574
	c18.701,7.953,40.245,6.441,58.808-5.222c18.564-11.662,29.271-30.421,30.218-50.718c20.297-0.948,39.054-11.656,50.719-30.22
	C485.435,374.262,486.947,352.717,478.988,334.022z"/>
<g>
	<path style="fill:#FFE14D;" d="M177.231,120.965c-31.022,0-56.264,25.242-56.264,56.264s25.242,56.264,56.264,56.264
		s56.264-25.242,56.264-56.264S208.253,120.965,177.231,120.965z M177.231,199.735c-12.406,0-22.506-10.094-22.506-22.506
		c0-12.412,10.099-22.506,22.506-22.506c12.406,0,22.506,10.094,22.506,22.506C199.736,189.641,189.637,199.735,177.231,199.735z"/>
	<path style="fill:#FFE14D;" d="M177.231,351.648c-4.319,0-8.638-1.649-11.934-4.946c-6.593-6.587-6.593-17.28,0-23.868
		l157.54-157.54c6.593-6.593,17.275-6.593,23.868,0c6.593,6.587,6.593,17.28,0,23.868l-157.54,157.54
		C185.867,350,181.55,351.648,177.231,351.648z"/>
</g>
<g>
	<path style="fill:#FFCC33;" d="M177.231,351.648c4.319,0,8.638-1.649,11.934-4.946l157.54-157.54c6.593-6.587,6.593-17.28,0-23.868
		L165.296,346.702C168.593,350,172.912,351.648,177.231,351.648z"/>
	<path style="fill:#FFCC33;" d="M346.023,289.757c-31.022,0-56.264,25.242-56.264,56.264s25.242,56.264,56.264,56.264
		s56.264-25.242,56.264-56.264S377.045,289.757,346.023,289.757z M346.023,368.527c-12.406,0-22.506-10.094-22.506-22.506
		c0-12.412,10.099-22.506,22.506-22.506s22.506,10.094,22.506,22.506C368.529,358.434,358.43,368.527,346.023,368.527z"/>
</g>
</svg>