<?xml version="1.0" encoding="iso-8859-1"?>
<!-- Uploaded to: SVG Repo, www.svgrepo.com, Generator: SVG Repo Mixer Tools -->
<svg height="800px" width="800px" version="1.1" id="Layer_1" xmlns="http://www.w3.org/2000/svg" xmlns:xlink="http://www.w3.org/1999/xlink" 
	 viewBox="0 0 512 512" xml:space="preserve">
<polyline style="fill:#4BAF78;" points="357.669,411.547 411.546,411.547 411.546,100.453 100.453,100.453 100.453,411.547 
	328.567,411.547 "/>
<path style="fill:#FFB92E;" d="M418.889,449.273H93.11c-16.754,0-30.384-13.63-30.384-30.384V93.111
	c0-16.754,13.63-30.384,30.384-30.384h325.779c16.754,0,30.384,13.63,30.384,30.384v325.779
	C449.272,435.643,435.642,449.273,418.889,449.273z M357.669,411.547h53.876V100.453H100.453v311.092h228.114"/>
<path style="fill:#EF9A1D;" d="M92.668,419.256V93.477c0-16.754,13.63-30.383,30.384-30.383h-21.837
	c-16.754,0-30.384,13.63-30.384,30.383v325.779c0,16.754,13.63,30.384,30.384,30.384h21.836
	C106.297,449.639,92.668,436.009,92.668,419.256z"/>
<path style="fill:#299956;" d="M130.395,398.978V113.755c0-7.143,5.792-12.935,12.935-12.935h-21.836
	c-7.144,0-12.935,5.792-12.935,12.935v285.223c0,7.143,5.79,12.935,12.935,12.935h21.836
	C136.186,411.913,130.395,406.121,130.395,398.978z"/>
<g style="opacity:0.15;">
	<path style="fill:#F5F5F5;" d="M449.272,413.036V93.111c0-16.754-13.63-30.384-30.384-30.384h-8.952v0.366h-45.83v-0.366h-16.168
		v0.366h-45.83v-0.366H285.94v0.366h-45.829v-0.366h-16.168v0.366h-12.679c-16.319,32.614-25.517,69.411-25.517,108.36
		c0,133.926,108.568,242.494,242.493,242.494C435.328,413.947,442.34,413.632,449.272,413.036z"/>
</g>
<path style="fill:#36A1CB;" d="M285.15,344.332c0,7.144,5.792,12.935,12.935,12.935h43.221c7.143,0,12.935-5.79,12.935-12.935
	v-43.221c0-7.144-5.792-12.935-12.935-12.935h-43.221c-7.143,0-12.935,5.79-12.935,12.935V344.332z"/>
<path style="fill:#2B80AF;" d="M315.186,344.332v-43.221c0-7.144,5.792-12.935,12.935-12.935h-21.836
	c-7.143,0-12.935,5.79-12.935,12.935v43.221c0,7.144,5.792,12.935,12.935,12.935h21.836
	C320.977,357.267,315.186,351.477,315.186,344.332z"/>
<g>
	<path style="fill:#231F20;" d="M411.546,92.369H100.453c-4.466,0-8.084,3.618-8.084,8.084v311.092c0,4.466,3.618,8.084,8.084,8.084
		h228.114c4.466,0,8.084-3.618,8.084-8.084c0-4.466-3.618-8.084-8.084-8.084h-220.03V108.538h294.924v294.924h-45.792
		c-4.466,0-8.084,3.618-8.084,8.084c0,4.466,3.618,8.084,8.084,8.084h53.876c4.466,0,8.084-3.618,8.084-8.084V100.453
		C419.63,95.989,416.011,92.369,411.546,92.369z"/>
	<path style="fill:#231F20;" d="M503.914,171.087c4.466,0,8.084-3.618,8.084-8.084c0-4.466-3.618-8.084-8.084-8.084h-46.557v-45.83
		h46.557c4.466,0,8.084-3.618,8.084-8.084c0-4.466-3.618-8.084-8.084-8.084h-46.563c-0.103-21.059-17.213-38.169-38.272-38.272
		V8.084c0-4.466-3.618-8.084-8.084-8.084c-4.465,0-8.084,3.618-8.084,8.084v46.559h-45.829V8.084c0-4.466-3.62-8.084-8.084-8.084
		c-4.466,0-8.084,3.618-8.084,8.084v46.559h-45.831V8.084c0-4.466-3.618-8.084-8.084-8.084c-4.466,0-8.084,3.618-8.084,8.084v46.559
		h-45.83V8.084C233.084,3.618,229.466,0,225,0c-4.466,0-8.084,3.618-8.084,8.084v46.559h-45.83V8.084
		c0-4.466-3.618-8.084-8.084-8.084c-4.466,0-8.084,3.618-8.084,8.084v46.559h-45.83V8.084c0-4.466-3.618-8.084-8.084-8.084
		s-8.084,3.618-8.084,8.084v46.564c-21.06,0.102-38.17,17.213-38.273,38.272H8.085c-4.466,0-8.084,3.618-8.084,8.084
		c0,4.466,3.618,8.084,8.084,8.084h46.558v45.83H8.085c-4.466,0-8.084,3.618-8.084,8.084c0,4.466,3.618,8.084,8.084,8.084h46.558
		v45.832H8.085c-4.466,0-8.084,3.618-8.084,8.084c0,4.466,3.618,8.084,8.084,8.084h46.558v45.83H8.085
		c-4.466,0-8.084,3.618-8.084,8.084s3.618,8.084,8.084,8.084h46.558v45.83H8.085c-4.466,0-8.084,3.618-8.084,8.084
		s3.618,8.084,8.084,8.084h46.558v45.83H8.085c-4.466,0-8.084,3.618-8.084,8.084s3.618,8.084,8.084,8.084h46.563
		c0.103,21.06,17.214,38.169,38.273,38.272v46.562c0,4.466,3.618,8.084,8.084,8.084s8.084-3.618,8.084-8.084v-46.559h45.83v46.559
		c0,4.466,3.618,8.084,8.084,8.084s8.084-3.618,8.084-8.084v-46.559h45.83v46.559c0,4.466,3.618,8.084,8.084,8.084
		s8.084-3.618,8.084-8.084v-46.559h45.83v46.559c0,4.466,3.618,8.084,8.084,8.084s8.084-3.618,8.084-8.084v-46.559h45.831v46.559
		c0,4.466,3.618,8.084,8.084,8.084c4.465,0,8.084-3.618,8.084-8.084v-46.559h45.829v46.559c0,4.466,3.62,8.084,8.084,8.084
		c4.466,0,8.084-3.618,8.084-8.084v-46.564c21.059-0.103,38.169-17.213,38.272-38.272h46.563c4.466,0,8.084-3.618,8.084-8.084
		c0-4.466-3.618-8.084-8.084-8.084h-46.557v-45.83h46.557c4.466,0,8.084-3.618,8.084-8.084c0-4.466-3.618-8.084-8.084-8.084h-46.557
		v-45.829h46.557c4.466,0,8.084-3.618,8.084-8.084s-3.618-8.084-8.084-8.084h-46.557v-45.83h46.557c4.466,0,8.084-3.618,8.084-8.084
		c0-4.466-3.618-8.084-8.084-8.084h-46.557v-45.832h46.556V171.087z M441.188,418.889c0,12.296-10.003,22.299-22.299,22.299H101.023
		c-0.006,0-0.012-0.001-0.018-0.001s-0.012,0.001-0.018,0.001H93.11c-12.296,0-22.299-10.003-22.299-22.299V93.111
		c0-12.296,10.003-22.299,22.299-22.299h7.874c0.008,0,0.014,0.001,0.02,0.001s0.014-0.001,0.02-0.001h61.956
		c0.008,0,0.014,0.001,0.02,0.001c0.006,0,0.014-0.001,0.02-0.001h61.956c0.008,0,0.014,0.001,0.02,0.001
		c0.006,0,0.014-0.001,0.02-0.001h61.956c0.008,0,0.014,0.001,0.02,0.001c0.007,0,0.014-0.001,0.021-0.001h61.957
		c0.008,0,0.014,0.001,0.02,0.001c0.007,0,0.014-0.001,0.021-0.001h69.87c12.296,0,22.299,10.003,22.299,22.299v325.779H441.188z"/>
	<path style="fill:#231F20;" d="M354.241,162.817c4.466,0,8.084-3.618,8.084-8.084c0-4.466-3.618-8.084-8.084-8.084h-4.654
		c-4.466,0-8.084,3.618-8.084,8.084c0,4.466,3.618,8.084,8.084,8.084H354.241z"/>
	<path style="fill:#231F20;" d="M322.099,146.649H157.758c-4.466,0-8.084,3.618-8.084,8.084c0,4.466,3.618,8.084,8.084,8.084
		h164.341c4.466,0,8.084-3.618,8.084-8.084C330.183,150.267,326.565,146.649,322.099,146.649z"/>
	<path style="fill:#231F20;" d="M354.241,232.161h-4.654c-4.466,0-8.084,3.618-8.084,8.084s3.618,8.084,8.084,8.084h4.654
		c4.466,0,8.084-3.618,8.084-8.084S358.706,232.161,354.241,232.161z"/>
	<path style="fill:#231F20;" d="M330.183,240.245c0-4.466-3.618-8.084-8.084-8.084H157.758c-4.466,0-8.084,3.618-8.084,8.084
		s3.618,8.084,8.084,8.084h164.341C326.565,248.33,330.183,244.71,330.183,240.245z"/>
	<path style="fill:#231F20;" d="M157.758,205.574h4.654c4.466,0,8.084-3.618,8.084-8.084c0-4.466-3.618-8.084-8.084-8.084h-4.654
		c-4.466,0-8.084,3.618-8.084,8.084C149.674,201.955,153.293,205.574,157.758,205.574z"/>
	<path style="fill:#231F20;" d="M181.815,197.49c0,4.466,3.618,8.084,8.084,8.084h164.341c4.466,0,8.084-3.618,8.084-8.084
		c0-4.466-3.618-8.084-8.084-8.084H189.9C185.434,189.406,181.815,193.024,181.815,197.49z"/>
	<path style="fill:#231F20;" d="M157.758,314.637c-4.466,0-8.084,3.618-8.084,8.084c0,4.466,3.618,8.084,8.084,8.084h5.244
		c4.466,0,8.084-3.618,8.084-8.084c0-4.466-3.618-8.084-8.084-8.084H157.758z"/>
	<path style="fill:#231F20;" d="M196.615,314.637c-4.466,0-8.084,3.618-8.084,8.084c0,4.466,3.618,8.084,8.084,8.084h5.244
		c4.466,0,8.084-3.618,8.084-8.084c0-4.466-3.618-8.084-8.084-8.084H196.615z"/>
	<path style="fill:#231F20;" d="M235.473,314.637c-4.466,0-8.084,3.618-8.084,8.084c0,4.466,3.618,8.084,8.084,8.084h5.245
		c4.466,0,8.084-3.618,8.084-8.084c0-4.466-3.618-8.084-8.084-8.084H235.473z"/>
	<path style="fill:#231F20;" d="M298.085,365.351h43.221c11.59,0,21.019-9.429,21.019-21.019v-43.221
		c0-11.59-9.429-21.019-21.019-21.019h-43.221c-11.59,0-21.019,9.429-21.019,21.019v43.221
		C277.066,355.922,286.495,365.351,298.085,365.351z M293.234,301.112c0-2.674,2.176-4.851,4.851-4.851h43.221
		c2.675,0,4.851,2.176,4.851,4.851v43.221c0,2.674-2.175,4.851-4.851,4.851h-43.221c-2.674,0-4.851-2.176-4.851-4.851V301.112z"/>
</g>
</svg>