<svg xmlns:xlink="http://www.w3.org/1999/xlink" class="w-16 h-16 lg:w-20 lg:h-20 rounded-2xl lg:rounded-3xl shadow-nav bg-wash" viewBox="0 0 120 120" fill="none" xmlns="http://www.w3.org/2000/svg" width="120"  height="120" ><path d="m101.3 42.856c-1.9371-4.6598-5.8655-9.691-8.9417-11.282 2.1941 4.2494 3.7168 8.8131 4.5137 13.529l0.0081 0.0748c-5.0393-12.564-13.585-17.63-20.564-28.66-0.3605-0.5624-0.7106-1.1313-1.05-1.7066-0.175-0.3005-0.3388-0.6074-0.491-0.92-0.2895-0.5606-0.5126-1.153-0.6647-1.7653 2e-4 -0.0282-0.01-0.0556-0.0287-0.0768s-0.0445-0.0348-0.0725-0.0382c-0.0275-0.0075-0.0565-0.0075-0.084 0-0.0057 0-0.0149 0.0104-0.0218 0.0127s-0.0219 0.0126-0.0322 0.0172l0.0172-0.0299c-11.195 6.555-14.994 18.69-15.343 24.76-4.4708 0.3074-8.7453 1.9549-12.266 4.7277-0.3673-0.3111-0.7512-0.6021-1.15-0.8717-1.0156-3.5547-1.0588-7.3168-0.1253-10.894-4.1114 1.9917-7.7645 4.8151-10.728 8.2915h-0.0207c-1.7664-2.239-1.6422-9.622-1.541-11.164-0.5225 0.21-1.0214 0.4749-1.4881 0.7901-1.5593 1.1129-3.0171 2.3617-4.3562 3.7317-1.5259 1.5472-2.9196 3.2193-4.1664 4.9991v0.0069-0.0081c-2.8656 4.0625-4.898 8.6523-5.98 13.504l-0.0598 0.2944c-0.1644 0.9247-0.3105 1.8525-0.4382 2.783 0 0.0333-0.0069 0.0644-0.0103 0.0977-0.3902 2.0279-0.6319 4.0815-0.7234 6.1445v0.23c0.0098 11.16 4.2056 21.91 11.758 30.126 7.5526 8.216 17.912 13.3 29.032 14.247s22.19-2.312 31.023-9.132c8.8332-6.8204 14.786-16.706 16.683-27.704 0.075-0.575 0.136-1.1443 0.203-1.725 0.918-7.5875-0.076-15.284-2.891-22.389zm-51.371 34.889c0.2082 0.1001 0.4037 0.2082 0.6176 0.3036l0.031 0.0196c-0.2162-0.1035-0.4324-0.2112-0.6486-0.3232zm46.954-32.556v-0.0425l0.0081 0.0471-0.0081-0.0046z" fill="url(&quot;#l&quot;)"></path><path d="m101.3 42.856c-1.9371-4.6598-5.8655-9.691-8.9417-11.282 2.1941 4.2494 3.7168 8.8131 4.5137 13.529v0.0426l0.0081 0.0471c3.4349 9.8307 2.9384 20.609-1.3869 30.082-5.1083 10.961-17.473 22.195-36.828 21.649-20.913-0.5923-39.33-16.11-42.773-36.436-0.6268-3.205 0-4.83 0.3151-7.4347-0.4299 2.0233-0.6697 4.0823-0.7165 6.1502v0.23c0.0098 11.16 4.2056 21.91 11.758 30.126 7.5526 8.216 17.912 13.3 29.032 14.247s22.19-2.312 31.023-9.1321c8.8332-6.8204 14.786-16.706 16.683-27.704 0.075-0.575 0.136-1.1443 0.203-1.725 0.918-7.5875-0.076-15.284-2.891-22.389z" fill="url(&quot;#i&quot;)"></path><path d="m101.3 42.856c-1.9371-4.6598-5.8655-9.691-8.9417-11.282 2.1941 4.2494 3.7168 8.8131 4.5137 13.529v0.0426l0.0081 0.0471c3.4349 9.8307 2.9384 20.609-1.3869 30.082-5.1083 10.961-17.473 22.195-36.828 21.649-20.913-0.5923-39.33-16.11-42.773-36.436-0.6268-3.205 0-4.83 0.3151-7.4347-0.4299 2.0233-0.6697 4.0823-0.7165 6.1502v0.23c0.0098 11.16 4.2056 21.91 11.758 30.126 7.5526 8.216 17.912 13.3 29.032 14.247s22.19-2.312 31.023-9.1321c8.8332-6.8204 14.786-16.706 16.683-27.704 0.075-0.575 0.136-1.1443 0.203-1.725 0.918-7.5875-0.076-15.284-2.891-22.389z" fill="url(&quot;#h&quot;)"></path><path d="m79.644 48.095c0.0966 0.0678 0.1863 0.1357 0.2772 0.2035-1.1196-1.9852-2.5133-3.8028-4.14-5.3992-13.853-13.855-3.6306-30.042-1.9067-30.864l0.0172-0.0253c-11.195 6.555-14.994 18.69-15.343 24.76 0.5198-0.0357 1.035-0.0794 1.5663-0.0794 3.9723 0.0073 7.8719 1.0664 11.302 3.0696 3.4303 2.0031 6.2689 4.879 8.2272 8.335z" fill="url(&quot;#g&quot;)"></path><path d="m60.144 50.862c-0.0736 1.1086-3.9905 4.9323-5.3602 4.9323-12.674 0-14.732 7.6671-14.732 7.6671 0.5612 6.4561 5.06 11.774 10.498 14.587 0.2484 0.1288 0.5002 0.2449 0.7521 0.3588 0.4362 0.1932 0.8724 0.3718 1.3087 0.5359 1.8664 0.6605 3.8212 1.0377 5.7994 1.1189 22.215 1.0419 26.518-26.565 10.487-34.576 3.7818-0.492 7.6116 0.4378 10.747 2.6094-1.9583-3.4561-4.7969-6.3319-8.2272-8.3351-3.4302-2.0031-7.3298-3.0622-11.302-3.0695-0.529 0-1.0465 0.0437-1.5663 0.0794-4.4708 0.3073-8.7453 1.9548-12.266 4.7276 0.6797 0.575 1.4467 1.3432 3.0625 2.936 3.0245 2.9796 10.781 6.0662 10.798 6.4285z" fill="url(&quot;#f&quot;)"></path><path d="m60.144 50.862c-0.0736 1.1086-3.9905 4.9323-5.3602 4.9323-12.674 0-14.732 7.6671-14.732 7.6671 0.5612 6.4561 5.06 11.774 10.498 14.587 0.2484 0.1288 0.5002 0.2449 0.7521 0.3588 0.4362 0.1932 0.8724 0.3718 1.3087 0.5359 1.8664 0.6605 3.8212 1.0377 5.7994 1.1189 22.215 1.0419 26.518-26.565 10.487-34.576 3.7818-0.492 7.6116 0.4378 10.747 2.6094-1.9583-3.4561-4.7969-6.3319-8.2272-8.3351-3.4302-2.0031-7.3298-3.0622-11.302-3.0695-0.529 0-1.0465 0.0437-1.5663 0.0794-4.4708 0.3073-8.7453 1.9548-12.266 4.7276 0.6797 0.575 1.4467 1.3432 3.0625 2.936 3.0245 2.9796 10.781 6.0662 10.798 6.4285z" fill="url(&quot;#e&quot;)"></path><path d="m44.205 40.015c0.3611 0.23 0.6589 0.4301 0.92 0.6107-1.0156-3.5547-1.0589-7.3168-0.1254-10.894-4.1113 1.9917-7.7644 4.8151-10.728 8.2915 0.2173-0.0057 6.6826-0.1219 9.9337 1.9918z" fill="url(&quot;#d&quot;)"></path><path d="m15.902 60.487c3.4397 20.325 21.86 35.843 42.773 36.436 19.354 0.5474 31.719-10.688 36.828-21.649 4.3254-9.4729 4.8223-20.251 1.3869-30.082v-0.0425c0-0.0334-0.0069-0.0529 0-0.0426l0.0081 0.0748c1.5812 10.324-3.6697 20.325-11.878 27.088l-0.0253 0.0575c-15.994 13.026-31.301 7.8591-34.399 5.75-0.2162-0.1035-0.4324-0.2112-0.6486-0.3231-9.3253-4.4574-13.178-12.954-12.352-20.24-2.2137 0.0326-4.3893-0.5774-6.2632-1.7561-1.874-1.1788-3.3659-2.8757-4.295-4.8852 2.4479-1.4997 5.2391-2.3475 8.1075-2.4626 2.8685-0.1152 5.7186 0.5062 8.2789 1.8048 5.2783 2.3962 11.285 2.6323 16.735 0.6578-0.0173-0.3622-7.774-3.45-10.798-6.4285-1.6158-1.5927-2.3828-2.3598-3.0625-2.9359-0.3673-0.3112-0.7512-0.6022-1.15-0.8717-0.2645-0.1806-0.5623-0.3761-0.92-0.6107-3.251-2.1137-9.7163-1.9975-9.9302-1.9918h-0.0207c-1.7664-2.239-1.6422-9.622-1.541-11.164-0.5226 0.21-1.0214 0.4749-1.4881 0.7901-1.5594 1.1129-3.0171 2.3617-4.3562 3.7317-1.5314 1.5428-2.9309 3.2111-4.1837 4.9876v0.0069-0.0081c-2.8656 4.0624-4.898 8.6523-5.98 13.504-0.0219 0.0908-1.6054 7.0138-0.8246 10.604z" fill="url(&quot;#c&quot;)"></path><path d="m75.784 42.9c1.6271 1.5982 3.0208 3.4178 4.14 5.405 0.2449 0.1852 0.4738 0.3692 0.6681 0.5474 10.105 9.315 4.8105 22.482 4.416 23.42 8.2087-6.7632 13.455-16.765 11.878-27.088-5.0416-12.57-13.587-17.635-20.567-28.666-0.3605-0.5624-0.7106-1.1313-1.05-1.7066-0.175-0.3005-0.3388-0.6074-0.491-0.92-0.2895-0.5606-0.5126-1.153-0.6647-1.7653 2e-4 -0.0282-0.01-0.0556-0.0287-0.0768s-0.0445-0.0348-0.0725-0.0382c-0.0275-0.0075-0.0565-0.0075-0.084 0-0.0057 0-0.0149 0.0104-0.0218 0.0127s-0.0219 0.0126-0.0322 0.0172c-1.7239 0.8177-11.946 17.004 1.909 30.859z" fill="url(&quot;#b&quot;)"></path><path d="m80.585 48.846c-0.2142-0.1927-0.4371-0.3754-0.6682-0.5474-0.0908-0.0679-0.1805-0.1357-0.2771-0.2036-3.1351-2.1715-6.965-3.1014-10.747-2.6093 16.031 8.0155 11.73 35.618-10.487 34.576-1.9781-0.0812-3.933-0.4584-5.7994-1.119-0.4362-0.1633-0.8725-0.3419-1.3087-0.5359-0.2519-0.115-0.5037-0.23-0.7521-0.3588l0.031 0.0196c3.0981 2.1148 18.4 7.2818 34.399-5.75l0.0253-0.0575c0.399-0.9315 5.6936-14.102-4.416-23.414z" fill="url(&quot;#a&quot;)"></path><path d="m40.052 63.462s2.0573-7.667 14.732-7.667c1.3696 0 5.29-3.8238 5.3601-4.9324-5.4501 1.9745-11.456 1.7384-16.735-0.6578-2.5602-1.2986-5.4104-1.9199-8.2788-1.8048-2.8684 0.1152-5.6596 0.963-8.1075 2.4626 0.9291 2.0095 2.421 3.7064 4.2949 4.8852 1.874 1.1788 4.0496 1.7888 6.2632 1.7561-0.8257 7.2875 3.0268 15.784 12.352 20.24 0.2081 0.1 0.4036 0.2081 0.6175 0.3036-5.4429-2.8118-9.9371-8.1294-10.498-14.586z" fill="url(&quot;#k&quot;)"></path><path d="m101.3 42.856c-1.9371-4.6598-5.8655-9.691-8.9417-11.282 2.1941 4.2494 3.7168 8.8131 4.5137 13.529l0.0081 0.0748c-5.0393-12.564-13.585-17.63-20.564-28.66-0.3605-0.5624-0.7106-1.1313-1.05-1.7066-0.175-0.3005-0.3388-0.6074-0.491-0.92-0.2895-0.5606-0.5126-1.153-0.6647-1.7653 2e-4 -0.0282-0.01-0.0556-0.0287-0.0768s-0.0445-0.0348-0.0725-0.0382c-0.0275-0.0075-0.0565-0.0075-0.084 0-0.0057 0-0.0149 0.0104-0.0218 0.0127s-0.0219 0.0126-0.0322 0.0172l0.0172-0.0299c-11.195 6.555-14.994 18.69-15.343 24.76 0.5198-0.0356 1.035-0.0793 1.5663-0.0793 3.9723 0.0073 7.8719 1.0663 11.302 3.0695 3.4303 2.0032 6.2689 4.879 8.2272 8.335-3.1351-2.1715-6.9649-3.1014-10.747-2.6093 16.031 8.0155 11.73 35.618-10.487 34.576-1.9782-0.0813-3.933-0.4584-5.7994-1.119-0.4363-0.1633-0.8725-0.3419-1.3087-0.5359-0.2519-0.115-0.5037-0.23-0.7521-0.3588l0.031 0.0196c-0.2162-0.1035-0.4324-0.2112-0.6486-0.3232 0.2082 0.1001 0.4037 0.2082 0.6176 0.3036-5.443-2.8129-9.9372-8.1305-10.498-14.587 0 0 2.0574-7.667 14.732-7.667 1.3697 0 5.29-3.8238 5.3602-4.9324-0.0173-0.3622-7.774-3.45-10.798-6.4285-1.6158-1.5927-2.3828-2.3598-3.0625-2.9359-0.3673-0.3111-0.7512-0.6021-1.15-0.8717-1.0156-3.5547-1.0588-7.3168-0.1253-10.894-4.1114 1.9917-7.7645 4.8151-10.728 8.2915h-0.0207c-1.7664-2.239-1.6422-9.622-1.541-11.164-0.5225 0.21-1.0214 0.4749-1.4881 0.7901-1.5593 1.1129-3.0171 2.3617-4.3562 3.7317-1.5259 1.5472-2.9196 3.2193-4.1664 4.9991v0.0069-0.0081c-2.8656 4.0625-4.898 8.6523-5.98 13.504l-0.0598 0.2944c-0.084 0.3921-0.46 2.3839-0.5141 2.8117v0c-0.3439 2.0561-0.5636 4.131-0.6578 6.2135v0.23c0.0098 11.16 4.2056 21.91 11.758 30.126 7.5526 8.216 17.912 13.3 29.032 14.247s22.19-2.312 31.023-9.132c8.8332-6.8204 14.786-16.706 16.683-27.704 0.075-0.575 0.136-1.1443 0.203-1.725 0.918-7.5875-0.076-15.284-2.891-22.389z" fill="url(&quot;#j&quot;)"></path><defs><linearGradient id="l" x1="95.404" x2="21.414" y1="26.252" y2="97.638" gradientUnits="userSpaceOnUse"><stop stop-color="#FFF44F" offset=".048"></stop><stop stop-color="#FFE847" offset=".111"></stop><stop stop-color="#FFC830" offset=".225"></stop><stop stop-color="#FF980E" offset=".368"></stop><stop stop-color="#FF8B16" offset=".401"></stop><stop stop-color="#FF672A" offset=".462"></stop><stop stop-color="#FF3647" offset=".534"></stop><stop stop-color="#E31587" offset=".705"></stop></linearGradient><radialGradient id="i" cx="0" cy="0" r="1" gradientTransform="translate(91.985 22.211) scale(92.916 92.917)" gradientUnits="userSpaceOnUse"><stop stop-color="#FFBD4F" offset=".129"></stop><stop stop-color="#FFAC31" offset=".186"></stop><stop stop-color="#FF9D17" offset=".247"></stop><stop stop-color="#FF980E" offset=".283"></stop><stop stop-color="#FF563B" offset=".403"></stop><stop stop-color="#FF3750" offset=".467"></stop><stop stop-color="#F5156C" offset=".71"></stop><stop stop-color="#EB0878" offset=".782"></stop><stop stop-color="#E50080" offset=".86"></stop></radialGradient><radialGradient id="h" cx="0" cy="0" r="1" gradientTransform="translate(58.032 60.198) scale(92.916 92.917)" gradientUnits="userSpaceOnUse"><stop stop-color="#960E18" offset=".3"></stop><stop stop-color="#B11927" stop-opacity=".74" offset=".351"></stop><stop stop-color="#DB293D" stop-opacity=".343" offset=".435"></stop><stop stop-color="#F5334B" stop-opacity=".094" offset=".497"></stop><stop stop-color="#FF3750" stop-opacity="0" offset=".53"></stop></radialGradient><radialGradient id="g" cx="0" cy="0" r="1" gradientTransform="translate(69.234 1.1246) scale(67.314)" gradientUnits="userSpaceOnUse"><stop stop-color="#FFF44F" offset=".132"></stop><stop stop-color="#FFDC3E" offset=".252"></stop><stop stop-color="#FF9D12" offset=".506"></stop><stop stop-color="#FF980E" offset=".526"></stop></radialGradient><radialGradient id="f" cx="0" cy="0" r="1" gradientTransform="translate(47.755 84.468) scale(44.242 44.242)" gradientUnits="userSpaceOnUse"><stop stop-color="#3A8EE6" offset=".353"></stop><stop stop-color="#5C79F0" offset=".472"></stop><stop stop-color="#9059FF" offset=".669"></stop><stop stop-color="#C139E6" offset="1"></stop></radialGradient><radialGradient id="e" cx="0" cy="0" r="1" gradientTransform="translate(63.11 52.583) rotate(-13.592) scale(23.457 27.462)" gradientUnits="userSpaceOnUse"><stop stop-color="#9059FF" stop-opacity="0" offset=".206"></stop><stop stop-color="#8C4FF3" stop-opacity=".064" offset=".278"></stop><stop stop-color="#7716A8" stop-opacity=".45" offset=".747"></stop><stop stop-color="#6E008B" stop-opacity=".6" offset=".975"></stop></radialGradient><radialGradient id="d" cx="0" cy="0" r="1" gradientTransform="translate(56.859 18.409) scale(31.827)" gradientUnits="userSpaceOnUse"><stop stop-color="#FFE226" offset="0"></stop><stop stop-color="#FFDB27" offset=".121"></stop><stop stop-color="#FFC82A" offset=".295"></stop><stop stop-color="#FFA930" offset=".502"></stop><stop stop-color="#FF7E37" offset=".732"></stop><stop stop-color="#FF7139" offset=".792"></stop></radialGradient><radialGradient id="c" cx="0" cy="0" r="1" gradientTransform="translate(81.876 -1.7782) scale(135.79)" gradientUnits="userSpaceOnUse"><stop stop-color="#FFF44F" offset=".113"></stop><stop stop-color="#FF980E" offset=".456"></stop><stop stop-color="#FF5634" offset=".622"></stop><stop stop-color="#FF3647" offset=".716"></stop><stop stop-color="#E31587" offset=".904"></stop></radialGradient><radialGradient id="b" cx="0" cy="0" r="1" gradientTransform="translate(70.431 5.7724) rotate(83.976) scale(99.526 65.318)" gradientUnits="userSpaceOnUse"><stop stop-color="#FFF44F" offset="0"></stop><stop stop-color="#FFE847" offset=".06"></stop><stop stop-color="#FFC830" offset=".168"></stop><stop stop-color="#FF980E" offset=".304"></stop><stop stop-color="#FF8B16" offset=".356"></stop><stop stop-color="#FF672A" offset=".455"></stop><stop stop-color="#FF3647" offset=".57"></stop><stop stop-color="#E31587" offset=".737"></stop></radialGradient><radialGradient id="a" cx="0" cy="0" r="1" gradientTransform="translate(56.11 30.198) scale(84.778)" gradientUnits="userSpaceOnUse"><stop stop-color="#FFF44F" offset=".137"></stop><stop stop-color="#FF980E" offset=".48"></stop><stop stop-color="#FF5634" offset=".592"></stop><stop stop-color="#FF3647" offset=".655"></stop><stop stop-color="#E31587" offset=".904"></stop></radialGradient><radialGradient id="k" cx="0" cy="0" r="1" gradientTransform="translate(78.488 35.16) scale(92.789)" gradientUnits="userSpaceOnUse"><stop stop-color="#FFF44F" offset=".094"></stop><stop stop-color="#FFE141" offset=".231"></stop><stop stop-color="#FFAF1E" offset=".509"></stop><stop stop-color="#FF980E" offset=".626"></stop></radialGradient><linearGradient id="j" x1="94.515" x2="31.557" y1="25.87" y2="88.827" gradientUnits="userSpaceOnUse"><stop stop-color="#FFF44F" stop-opacity=".8" offset=".167"></stop><stop stop-color="#FFF44F" stop-opacity=".634" offset=".266"></stop><stop stop-color="#FFF44F" stop-opacity=".217" offset=".489"></stop><stop stop-color="#FFF44F" stop-opacity="0" offset=".6"></stop></linearGradient><linearGradient id="l" x1="95.404" x2="21.414" y1="26.252" y2="97.638" gradientUnits="userSpaceOnUse"><stop stop-color="#FFF44F" offset=".048"></stop><stop stop-color="#FFE847" offset=".111"></stop><stop stop-color="#FFC830" offset=".225"></stop><stop stop-color="#FF980E" offset=".368"></stop><stop stop-color="#FF8B16" offset=".401"></stop><stop stop-color="#FF672A" offset=".462"></stop><stop stop-color="#FF3647" offset=".534"></stop><stop stop-color="#E31587" offset=".705"></stop></linearGradient><radialGradient id="i" cx="0" cy="0" r="1" gradientTransform="translate(91.985 22.211) scale(92.916 92.917)" gradientUnits="userSpaceOnUse"><stop stop-color="#FFBD4F" offset=".129"></stop><stop stop-color="#FFAC31" offset=".186"></stop><stop stop-color="#FF9D17" offset=".247"></stop><stop stop-color="#FF980E" offset=".283"></stop><stop stop-color="#FF563B" offset=".403"></stop><stop stop-color="#FF3750" offset=".467"></stop><stop stop-color="#F5156C" offset=".71"></stop><stop stop-color="#EB0878" offset=".782"></stop><stop stop-color="#E50080" offset=".86"></stop></radialGradient><radialGradient id="h" cx="0" cy="0" r="1" gradientTransform="translate(58.032 60.198) scale(92.916 92.917)" gradientUnits="userSpaceOnUse"><stop stop-color="#960E18" offset=".3"></stop><stop stop-color="#B11927" stop-opacity=".74" offset=".351"></stop><stop stop-color="#DB293D" stop-opacity=".343" offset=".435"></stop><stop stop-color="#F5334B" stop-opacity=".094" offset=".497"></stop><stop stop-color="#FF3750" stop-opacity="0" offset=".53"></stop></radialGradient><radialGradient id="g" cx="0" cy="0" r="1" gradientTransform="translate(69.234 1.1246) scale(67.314)" gradientUnits="userSpaceOnUse"><stop stop-color="#FFF44F" offset=".132"></stop><stop stop-color="#FFDC3E" offset=".252"></stop><stop stop-color="#FF9D12" offset=".506"></stop><stop stop-color="#FF980E" offset=".526"></stop></radialGradient><radialGradient id="f" cx="0" cy="0" r="1" gradientTransform="translate(47.755 84.468) scale(44.242 44.242)" gradientUnits="userSpaceOnUse"><stop stop-color="#3A8EE6" offset=".353"></stop><stop stop-color="#5C79F0" offset=".472"></stop><stop stop-color="#9059FF" offset=".669"></stop><stop stop-color="#C139E6" offset="1"></stop></radialGradient><radialGradient id="e" cx="0" cy="0" r="1" gradientTransform="translate(63.11 52.583) rotate(-13.592) scale(23.457 27.462)" gradientUnits="userSpaceOnUse"><stop stop-color="#9059FF" stop-opacity="0" offset=".206"></stop><stop stop-color="#8C4FF3" stop-opacity=".064" offset=".278"></stop><stop stop-color="#7716A8" stop-opacity=".45" offset=".747"></stop><stop stop-color="#6E008B" stop-opacity=".6" offset=".975"></stop></radialGradient><radialGradient id="d" cx="0" cy="0" r="1" gradientTransform="translate(56.859 18.409) scale(31.827)" gradientUnits="userSpaceOnUse"><stop stop-color="#FFE226" offset="0"></stop><stop stop-color="#FFDB27" offset=".121"></stop><stop stop-color="#FFC82A" offset=".295"></stop><stop stop-color="#FFA930" offset=".502"></stop><stop stop-color="#FF7E37" offset=".732"></stop><stop stop-color="#FF7139" offset=".792"></stop></radialGradient><radialGradient id="c" cx="0" cy="0" r="1" gradientTransform="translate(81.876 -1.7782) scale(135.79)" gradientUnits="userSpaceOnUse"><stop stop-color="#FFF44F" offset=".113"></stop><stop stop-color="#FF980E" offset=".456"></stop><stop stop-color="#FF5634" offset=".622"></stop><stop stop-color="#FF3647" offset=".716"></stop><stop stop-color="#E31587" offset=".904"></stop></radialGradient><radialGradient id="b" cx="0" cy="0" r="1" gradientTransform="translate(70.431 5.7724) rotate(83.976) scale(99.526 65.318)" gradientUnits="userSpaceOnUse"><stop stop-color="#FFF44F" offset="0"></stop><stop stop-color="#FFE847" offset=".06"></stop><stop stop-color="#FFC830" offset=".168"></stop><stop stop-color="#FF980E" offset=".304"></stop><stop stop-color="#FF8B16" offset=".356"></stop><stop stop-color="#FF672A" offset=".455"></stop><stop stop-color="#FF3647" offset=".57"></stop><stop stop-color="#E31587" offset=".737"></stop></radialGradient><radialGradient id="a" cx="0" cy="0" r="1" gradientTransform="translate(56.11 30.198) scale(84.778)" gradientUnits="userSpaceOnUse"><stop stop-color="#FFF44F" offset=".137"></stop><stop stop-color="#FF980E" offset=".48"></stop><stop stop-color="#FF5634" offset=".592"></stop><stop stop-color="#FF3647" offset=".655"></stop><stop stop-color="#E31587" offset=".904"></stop></radialGradient><radialGradient id="k" cx="0" cy="0" r="1" gradientTransform="translate(78.488 35.16) scale(92.789)" gradientUnits="userSpaceOnUse"><stop stop-color="#FFF44F" offset=".094"></stop><stop stop-color="#FFE141" offset=".231"></stop><stop stop-color="#FFAF1E" offset=".509"></stop><stop stop-color="#FF980E" offset=".626"></stop></radialGradient><linearGradient id="j" x1="94.515" x2="31.557" y1="25.87" y2="88.827" gradientUnits="userSpaceOnUse"><stop stop-color="#FFF44F" stop-opacity=".8" offset=".167"></stop><stop stop-color="#FFF44F" stop-opacity=".634" offset=".266"></stop><stop stop-color="#FFF44F" stop-opacity=".217" offset=".489"></stop><stop stop-color="#FFF44F" stop-opacity="0" offset=".6"></stop></linearGradient><linearGradient id="l" x1="95.404" x2="21.414" y1="26.252" y2="97.638" gradientUnits="userSpaceOnUse"><stop stop-color="#FFF44F" offset=".048"></stop><stop stop-color="#FFE847" offset=".111"></stop><stop stop-color="#FFC830" offset=".225"></stop><stop stop-color="#FF980E" offset=".368"></stop><stop stop-color="#FF8B16" offset=".401"></stop><stop stop-color="#FF672A" offset=".462"></stop><stop stop-color="#FF3647" offset=".534"></stop><stop stop-color="#E31587" offset=".705"></stop></linearGradient><radialGradient id="i" cx="0" cy="0" r="1" gradientTransform="translate(91.985 22.211) scale(92.916 92.917)" gradientUnits="userSpaceOnUse"><stop stop-color="#FFBD4F" offset=".129"></stop><stop stop-color="#FFAC31" offset=".186"></stop><stop stop-color="#FF9D17" offset=".247"></stop><stop stop-color="#FF980E" offset=".283"></stop><stop stop-color="#FF563B" offset=".403"></stop><stop stop-color="#FF3750" offset=".467"></stop><stop stop-color="#F5156C" offset=".71"></stop><stop stop-color="#EB0878" offset=".782"></stop><stop stop-color="#E50080" offset=".86"></stop></radialGradient><radialGradient id="h" cx="0" cy="0" r="1" gradientTransform="translate(58.032 60.198) scale(92.916 92.917)" gradientUnits="userSpaceOnUse"><stop stop-color="#960E18" offset=".3"></stop><stop stop-color="#B11927" stop-opacity=".74" offset=".351"></stop><stop stop-color="#DB293D" stop-opacity=".343" offset=".435"></stop><stop stop-color="#F5334B" stop-opacity=".094" offset=".497"></stop><stop stop-color="#FF3750" stop-opacity="0" offset=".53"></stop></radialGradient><radialGradient id="g" cx="0" cy="0" r="1" gradientTransform="translate(69.234 1.1246) scale(67.314)" gradientUnits="userSpaceOnUse"><stop stop-color="#FFF44F" offset=".132"></stop><stop stop-color="#FFDC3E" offset=".252"></stop><stop stop-color="#FF9D12" offset=".506"></stop><stop stop-color="#FF980E" offset=".526"></stop></radialGradient><radialGradient id="f" cx="0" cy="0" r="1" gradientTransform="translate(47.755 84.468) scale(44.242 44.242)" gradientUnits="userSpaceOnUse"><stop stop-color="#3A8EE6" offset=".353"></stop><stop stop-color="#5C79F0" offset=".472"></stop><stop stop-color="#9059FF" offset=".669"></stop><stop stop-color="#C139E6" offset="1"></stop></radialGradient><radialGradient id="e" cx="0" cy="0" r="1" gradientTransform="translate(63.11 52.583) rotate(-13.592) scale(23.457 27.462)" gradientUnits="userSpaceOnUse"><stop stop-color="#9059FF" stop-opacity="0" offset=".206"></stop><stop stop-color="#8C4FF3" stop-opacity=".064" offset=".278"></stop><stop stop-color="#7716A8" stop-opacity=".45" offset=".747"></stop><stop stop-color="#6E008B" stop-opacity=".6" offset=".975"></stop></radialGradient><radialGradient id="d" cx="0" cy="0" r="1" gradientTransform="translate(56.859 18.409) scale(31.827)" gradientUnits="userSpaceOnUse"><stop stop-color="#FFE226" offset="0"></stop><stop stop-color="#FFDB27" offset=".121"></stop><stop stop-color="#FFC82A" offset=".295"></stop><stop stop-color="#FFA930" offset=".502"></stop><stop stop-color="#FF7E37" offset=".732"></stop><stop stop-color="#FF7139" offset=".792"></stop></radialGradient><radialGradient id="c" cx="0" cy="0" r="1" gradientTransform="translate(81.876 -1.7782) scale(135.79)" gradientUnits="userSpaceOnUse"><stop stop-color="#FFF44F" offset=".113"></stop><stop stop-color="#FF980E" offset=".456"></stop><stop stop-color="#FF5634" offset=".622"></stop><stop stop-color="#FF3647" offset=".716"></stop><stop stop-color="#E31587" offset=".904"></stop></radialGradient><radialGradient id="b" cx="0" cy="0" r="1" gradientTransform="translate(70.431 5.7724) rotate(83.976) scale(99.526 65.318)" gradientUnits="userSpaceOnUse"><stop stop-color="#FFF44F" offset="0"></stop><stop stop-color="#FFE847" offset=".06"></stop><stop stop-color="#FFC830" offset=".168"></stop><stop stop-color="#FF980E" offset=".304"></stop><stop stop-color="#FF8B16" offset=".356"></stop><stop stop-color="#FF672A" offset=".455"></stop><stop stop-color="#FF3647" offset=".57"></stop><stop stop-color="#E31587" offset=".737"></stop></radialGradient><radialGradient id="a" cx="0" cy="0" r="1" gradientTransform="translate(56.11 30.198) scale(84.778)" gradientUnits="userSpaceOnUse"><stop stop-color="#FFF44F" offset=".137"></stop><stop stop-color="#FF980E" offset=".48"></stop><stop stop-color="#FF5634" offset=".592"></stop><stop stop-color="#FF3647" offset=".655"></stop><stop stop-color="#E31587" offset=".904"></stop></radialGradient><radialGradient id="k" cx="0" cy="0" r="1" gradientTransform="translate(78.488 35.16) scale(92.789)" gradientUnits="userSpaceOnUse"><stop stop-color="#FFF44F" offset=".094"></stop><stop stop-color="#FFE141" offset=".231"></stop><stop stop-color="#FFAF1E" offset=".509"></stop><stop stop-color="#FF980E" offset=".626"></stop></radialGradient><linearGradient id="j" x1="94.515" x2="31.557" y1="25.87" y2="88.827" gradientUnits="userSpaceOnUse"><stop stop-color="#FFF44F" stop-opacity=".8" offset=".167"></stop><stop stop-color="#FFF44F" stop-opacity=".634" offset=".266"></stop><stop stop-color="#FFF44F" stop-opacity=".217" offset=".489"></stop><stop stop-color="#FFF44F" stop-opacity="0" offset=".6"></stop></linearGradient><linearGradient id="l" x1="95.404" x2="21.414" y1="26.252" y2="97.638" gradientUnits="userSpaceOnUse"><stop stop-color="#FFF44F" offset=".048"></stop><stop stop-color="#FFE847" offset=".111"></stop><stop stop-color="#FFC830" offset=".225"></stop><stop stop-color="#FF980E" offset=".368"></stop><stop stop-color="#FF8B16" offset=".401"></stop><stop stop-color="#FF672A" offset=".462"></stop><stop stop-color="#FF3647" offset=".534"></stop><stop stop-color="#E31587" offset=".705"></stop></linearGradient><radialGradient id="i" cx="0" cy="0" r="1" gradientTransform="translate(91.985 22.211) scale(92.916 92.917)" gradientUnits="userSpaceOnUse"><stop stop-color="#FFBD4F" offset=".129"></stop><stop stop-color="#FFAC31" offset=".186"></stop><stop stop-color="#FF9D17" offset=".247"></stop><stop stop-color="#FF980E" offset=".283"></stop><stop stop-color="#FF563B" offset=".403"></stop><stop stop-color="#FF3750" offset=".467"></stop><stop stop-color="#F5156C" offset=".71"></stop><stop stop-color="#EB0878" offset=".782"></stop><stop stop-color="#E50080" offset=".86"></stop></radialGradient><radialGradient id="h" cx="0" cy="0" r="1" gradientTransform="translate(58.032 60.198) scale(92.916 92.917)" gradientUnits="userSpaceOnUse"><stop stop-color="#960E18" offset=".3"></stop><stop stop-color="#B11927" stop-opacity=".74" offset=".351"></stop><stop stop-color="#DB293D" stop-opacity=".343" offset=".435"></stop><stop stop-color="#F5334B" stop-opacity=".094" offset=".497"></stop><stop stop-color="#FF3750" stop-opacity="0" offset=".53"></stop></radialGradient><radialGradient id="g" cx="0" cy="0" r="1" gradientTransform="translate(69.234 1.1246) scale(67.314)" gradientUnits="userSpaceOnUse"><stop stop-color="#FFF44F" offset=".132"></stop><stop stop-color="#FFDC3E" offset=".252"></stop><stop stop-color="#FF9D12" offset=".506"></stop><stop stop-color="#FF980E" offset=".526"></stop></radialGradient><radialGradient id="f" cx="0" cy="0" r="1" gradientTransform="translate(47.755 84.468) scale(44.242 44.242)" gradientUnits="userSpaceOnUse"><stop stop-color="#3A8EE6" offset=".353"></stop><stop stop-color="#5C79F0" offset=".472"></stop><stop stop-color="#9059FF" offset=".669"></stop><stop stop-color="#C139E6" offset="1"></stop></radialGradient><radialGradient id="e" cx="0" cy="0" r="1" gradientTransform="translate(63.11 52.583) rotate(-13.592) scale(23.457 27.462)" gradientUnits="userSpaceOnUse"><stop stop-color="#9059FF" stop-opacity="0" offset=".206"></stop><stop stop-color="#8C4FF3" stop-opacity=".064" offset=".278"></stop><stop stop-color="#7716A8" stop-opacity=".45" offset=".747"></stop><stop stop-color="#6E008B" stop-opacity=".6" offset=".975"></stop></radialGradient><radialGradient id="d" cx="0" cy="0" r="1" gradientTransform="translate(56.859 18.409) scale(31.827)" gradientUnits="userSpaceOnUse"><stop stop-color="#FFE226" offset="0"></stop><stop stop-color="#FFDB27" offset=".121"></stop><stop stop-color="#FFC82A" offset=".295"></stop><stop stop-color="#FFA930" offset=".502"></stop><stop stop-color="#FF7E37" offset=".732"></stop><stop stop-color="#FF7139" offset=".792"></stop></radialGradient><radialGradient id="c" cx="0" cy="0" r="1" gradientTransform="translate(81.876 -1.7782) scale(135.79)" gradientUnits="userSpaceOnUse"><stop stop-color="#FFF44F" offset=".113"></stop><stop stop-color="#FF980E" offset=".456"></stop><stop stop-color="#FF5634" offset=".622"></stop><stop stop-color="#FF3647" offset=".716"></stop><stop stop-color="#E31587" offset=".904"></stop></radialGradient><radialGradient id="b" cx="0" cy="0" r="1" gradientTransform="translate(70.431 5.7724) rotate(83.976) scale(99.526 65.318)" gradientUnits="userSpaceOnUse"><stop stop-color="#FFF44F" offset="0"></stop><stop stop-color="#FFE847" offset=".06"></stop><stop stop-color="#FFC830" offset=".168"></stop><stop stop-color="#FF980E" offset=".304"></stop><stop stop-color="#FF8B16" offset=".356"></stop><stop stop-color="#FF672A" offset=".455"></stop><stop stop-color="#FF3647" offset=".57"></stop><stop stop-color="#E31587" offset=".737"></stop></radialGradient><radialGradient id="a" cx="0" cy="0" r="1" gradientTransform="translate(56.11 30.198) scale(84.778)" gradientUnits="userSpaceOnUse"><stop stop-color="#FFF44F" offset=".137"></stop><stop stop-color="#FF980E" offset=".48"></stop><stop stop-color="#FF5634" offset=".592"></stop><stop stop-color="#FF3647" offset=".655"></stop><stop stop-color="#E31587" offset=".904"></stop></radialGradient><radialGradient id="k" cx="0" cy="0" r="1" gradientTransform="translate(78.488 35.16) scale(92.789)" gradientUnits="userSpaceOnUse"><stop stop-color="#FFF44F" offset=".094"></stop><stop stop-color="#FFE141" offset=".231"></stop><stop stop-color="#FFAF1E" offset=".509"></stop><stop stop-color="#FF980E" offset=".626"></stop></radialGradient><linearGradient id="j" x1="94.515" x2="31.557" y1="25.87" y2="88.827" gradientUnits="userSpaceOnUse"><stop stop-color="#FFF44F" stop-opacity=".8" offset=".167"></stop><stop stop-color="#FFF44F" stop-opacity=".634" offset=".266"></stop><stop stop-color="#FFF44F" stop-opacity=".217" offset=".489"></stop><stop stop-color="#FFF44F" stop-opacity="0" offset=".6"></stop></linearGradient><linearGradient id="l" x1="95.404" x2="21.414" y1="26.252" y2="97.638" gradientUnits="userSpaceOnUse"><stop stop-color="#FFF44F" offset=".048"></stop><stop stop-color="#FFE847" offset=".111"></stop><stop stop-color="#FFC830" offset=".225"></stop><stop stop-color="#FF980E" offset=".368"></stop><stop stop-color="#FF8B16" offset=".401"></stop><stop stop-color="#FF672A" offset=".462"></stop><stop stop-color="#FF3647" offset=".534"></stop><stop stop-color="#E31587" offset=".705"></stop></linearGradient><radialGradient id="i" cx="0" cy="0" r="1" gradientTransform="translate(91.985 22.211) scale(92.916 92.917)" gradientUnits="userSpaceOnUse"><stop stop-color="#FFBD4F" offset=".129"></stop><stop stop-color="#FFAC31" offset=".186"></stop><stop stop-color="#FF9D17" offset=".247"></stop><stop stop-color="#FF980E" offset=".283"></stop><stop stop-color="#FF563B" offset=".403"></stop><stop stop-color="#FF3750" offset=".467"></stop><stop stop-color="#F5156C" offset=".71"></stop><stop stop-color="#EB0878" offset=".782"></stop><stop stop-color="#E50080" offset=".86"></stop></radialGradient><radialGradient id="h" cx="0" cy="0" r="1" gradientTransform="translate(58.032 60.198) scale(92.916 92.917)" gradientUnits="userSpaceOnUse"><stop stop-color="#960E18" offset=".3"></stop><stop stop-color="#B11927" stop-opacity=".74" offset=".351"></stop><stop stop-color="#DB293D" stop-opacity=".343" offset=".435"></stop><stop stop-color="#F5334B" stop-opacity=".094" offset=".497"></stop><stop stop-color="#FF3750" stop-opacity="0" offset=".53"></stop></radialGradient><radialGradient id="g" cx="0" cy="0" r="1" gradientTransform="translate(69.234 1.1246) scale(67.314)" gradientUnits="userSpaceOnUse"><stop stop-color="#FFF44F" offset=".132"></stop><stop stop-color="#FFDC3E" offset=".252"></stop><stop stop-color="#FF9D12" offset=".506"></stop><stop stop-color="#FF980E" offset=".526"></stop></radialGradient><radialGradient id="f" cx="0" cy="0" r="1" gradientTransform="translate(47.755 84.468) scale(44.242 44.242)" gradientUnits="userSpaceOnUse"><stop stop-color="#3A8EE6" offset=".353"></stop><stop stop-color="#5C79F0" offset=".472"></stop><stop stop-color="#9059FF" offset=".669"></stop><stop stop-color="#C139E6" offset="1"></stop></radialGradient><radialGradient id="e" cx="0" cy="0" r="1" gradientTransform="translate(63.11 52.583) rotate(-13.592) scale(23.457 27.462)" gradientUnits="userSpaceOnUse"><stop stop-color="#9059FF" stop-opacity="0" offset=".206"></stop><stop stop-color="#8C4FF3" stop-opacity=".064" offset=".278"></stop><stop stop-color="#7716A8" stop-opacity=".45" offset=".747"></stop><stop stop-color="#6E008B" stop-opacity=".6" offset=".975"></stop></radialGradient><radialGradient id="d" cx="0" cy="0" r="1" gradientTransform="translate(56.859 18.409) scale(31.827)" gradientUnits="userSpaceOnUse"><stop stop-color="#FFE226" offset="0"></stop><stop stop-color="#FFDB27" offset=".121"></stop><stop stop-color="#FFC82A" offset=".295"></stop><stop stop-color="#FFA930" offset=".502"></stop><stop stop-color="#FF7E37" offset=".732"></stop><stop stop-color="#FF7139" offset=".792"></stop></radialGradient><radialGradient id="c" cx="0" cy="0" r="1" gradientTransform="translate(81.876 -1.7782) scale(135.79)" gradientUnits="userSpaceOnUse"><stop stop-color="#FFF44F" offset=".113"></stop><stop stop-color="#FF980E" offset=".456"></stop><stop stop-color="#FF5634" offset=".622"></stop><stop stop-color="#FF3647" offset=".716"></stop><stop stop-color="#E31587" offset=".904"></stop></radialGradient><radialGradient id="b" cx="0" cy="0" r="1" gradientTransform="translate(70.431 5.7724) rotate(83.976) scale(99.526 65.318)" gradientUnits="userSpaceOnUse"><stop stop-color="#FFF44F" offset="0"></stop><stop stop-color="#FFE847" offset=".06"></stop><stop stop-color="#FFC830" offset=".168"></stop><stop stop-color="#FF980E" offset=".304"></stop><stop stop-color="#FF8B16" offset=".356"></stop><stop stop-color="#FF672A" offset=".455"></stop><stop stop-color="#FF3647" offset=".57"></stop><stop stop-color="#E31587" offset=".737"></stop></radialGradient><radialGradient id="a" cx="0" cy="0" r="1" gradientTransform="translate(56.11 30.198) scale(84.778)" gradientUnits="userSpaceOnUse"><stop stop-color="#FFF44F" offset=".137"></stop><stop stop-color="#FF980E" offset=".48"></stop><stop stop-color="#FF5634" offset=".592"></stop><stop stop-color="#FF3647" offset=".655"></stop><stop stop-color="#E31587" offset=".904"></stop></radialGradient><radialGradient id="k" cx="0" cy="0" r="1" gradientTransform="translate(78.488 35.16) scale(92.789)" gradientUnits="userSpaceOnUse"><stop stop-color="#FFF44F" offset=".094"></stop><stop stop-color="#FFE141" offset=".231"></stop><stop stop-color="#FFAF1E" offset=".509"></stop><stop stop-color="#FF980E" offset=".626"></stop></radialGradient><linearGradient id="j" x1="94.515" x2="31.557" y1="25.87" y2="88.827" gradientUnits="userSpaceOnUse"><stop stop-color="#FFF44F" stop-opacity=".8" offset=".167"></stop><stop stop-color="#FFF44F" stop-opacity=".634" offset=".266"></stop><stop stop-color="#FFF44F" stop-opacity=".217" offset=".489"></stop><stop stop-color="#FFF44F" stop-opacity="0" offset=".6"></stop></linearGradient></defs></svg>