<?xml version="1.0" encoding="utf-8"?>
<!-- Uploaded to: SVG Repo, www.svgrepo.com, Generator: SVG Repo Mixer Tools -->
<svg width="800px" height="800px" viewBox="0 0 1024 1024" class="icon"  version="1.1" xmlns="http://www.w3.org/2000/svg"><path d="M64 96h896v928H64z" fill="#EAEAEA" /><path d="M416 768h192v256h-192z" fill="#434854" /><path d="M416 576h192v128h-192zM160 576h192v128H160zM160 768h192v128H160zM672 576h192v128h-192zM672 768h192v128h-192zM416 384h192v128h-192zM160 384h192v128H160zM672 384h192v128h-192zM416 192h192v128h-192zM160 192h192v128H160zM672 192h192v128h-192z" fill="#469FCC" /><path d="M160 192h192v32H160zM416 192h192v32h-192zM672 192h192v32h-192zM160 384h192v32H160zM416 384h192v32h-192zM672 384h192v32h-192zM160 576h192v32H160zM416 576h192v32h-192zM672 576h192v32h-192zM160 768h192v32H160zM672 768h192v32h-192z" fill="" /><path d="M64 96h896v32H64z" fill="" /><path d="M1024 64a32 32 0 0 1-32 32H32a32 32 0 0 1-32-32V32a32 32 0 0 1 32-32h960a32 32 0 0 1 32 32v32z" fill="#EF4D4D" /><path d="M238.24 1024A126.656 126.656 0 0 0 256 960a128 128 0 0 0-256 0c0 23.424 6.752 45.088 17.76 64h220.48zM896 832a127.744 127.744 0 0 0-116.224 75.04A94.848 94.848 0 0 0 736 896a96 96 0 0 0-96 96c0 11.296 2.304 21.952 5.888 32h360.384A126.944 126.944 0 0 0 1024 960a128 128 0 0 0-128-128z" fill="#3AAD73" /><path d="M779.776 907.04A94.848 94.848 0 0 0 736 896a96 96 0 0 0-96 96c0 11.296 2.304 21.952 5.888 32h139.872A126.656 126.656 0 0 1 768 960c0-18.944 4.384-36.768 11.776-52.96z" fill="" /></svg>