<svg xmlns:xlink="http://www.w3.org/1999/xlink" class="w-16 h-16 lg:w-20 lg:h-20 rounded-2xl lg:rounded-3xl shadow-nav bg-wash" viewBox="0 0 120 120" fill="none" xmlns="http://www.w3.org/2000/svg" width="120"  height="120" ><path d="m60 104c24.3 0 44-19.7 44-44s-19.7-44-44-44-44 19.7-44 44 19.7 44 44 44z" fill="url(&quot;#aaa&quot;)"></path><path d="m60.002 100.1v-6.756" stroke="#FFFFFF" stroke-linecap="square" stroke-width="0.84706px" fill="none"></path><path d="m60.002 26.624v-6.7563" stroke="#FFFFFF" stroke-linecap="square" stroke-width="0.84706px" fill="none"></path><path d="m53.018 99.512 1.1732-6.6536m11.585-65.704 1.1732-6.6536" stroke="#FFFFFF" stroke-linecap="square" stroke-width="0.84706px" fill="none"></path><path d="m46.278 97.689 2.3108-6.3488m22.819-62.694 2.3108-6.3488" stroke="#FFFFFF" stroke-linecap="square" stroke-width="0.84706px" fill="none"></path><path d="m39.91 94.765 3.3781-5.851m33.359-57.779 3.3782-5.8511" stroke="#FFFFFF" stroke-linecap="square" stroke-width="0.84706px" fill="none"></path><path d="m34.252 90.737 4.3428-5.1756m42.885-51.109 4.3429-5.1756" stroke="#FFFFFF" stroke-linecap="square" stroke-width="0.84706px" fill="none"></path><path d="m29.227 85.774 5.1756-4.3428m51.109-42.885 5.1756-4.3428" stroke="#FFFFFF" stroke-linecap="square" stroke-width="0.84706px" fill="none"></path><path d="m25.244 80.033 5.8511-3.3781m57.779-33.359 5.8511-3.3781" stroke="#FFFFFF" stroke-linecap="square" stroke-width="0.84706px" fill="none"></path><path d="m22.238 73.725 6.3488-2.3108m62.694-22.819 6.3488-2.3108" stroke="#FFFFFF" stroke-linecap="square" stroke-width="0.84706px" fill="none"></path><path d="m20.469 67.009 6.6535-1.1733m65.704-11.585 6.6536-1.1732" stroke="#FFFFFF" stroke-linecap="square" stroke-width="0.84706px" fill="none"></path><path d="m19.9 60.002h6.7563m66.718 0h6.7558" stroke="#FFFFFF" stroke-linecap="square" stroke-width="0.84706px" fill="none"></path><path d="m20.488 53.062 6.6536 1.1732m65.704 11.585 6.6536 1.1732" stroke="#FFFFFF" stroke-linecap="square" stroke-width="0.84706px" fill="none"></path><path d="m22.309 46.295 6.3488 2.3108m62.694 22.819 6.3488 2.3108" stroke="#FFFFFF" stroke-linecap="square" stroke-width="0.84706px" fill="none"></path><path d="m25.229 39.99 5.8511 3.3781m57.779 33.359 5.851 3.3781" stroke="#FFFFFF" stroke-linecap="square" stroke-width="0.84706px" fill="none"></path><path d="m29.24 34.19 5.1756 4.3428m51.109 42.885 5.1756 4.3429" stroke="#FFFFFF" stroke-linecap="square" stroke-width="0.84706px" fill="none"></path><path d="m34.166 29.281 4.3428 5.1756m42.885 51.109 4.3428 5.1755" stroke="#FFFFFF" stroke-linecap="square" stroke-width="0.84706px" fill="none"></path><path d="m39.918 25.256 3.3781 5.8511m33.359 57.779 3.3781 5.8511" stroke="#FFFFFF" stroke-linecap="square" stroke-width="0.84706px" fill="none"></path><path d="m46.28 22.3 2.3108 6.3487m22.819 62.694 2.3107 6.3488" stroke="#FFFFFF" stroke-linecap="square" stroke-width="0.84706px" fill="none"></path><path d="m52.992 20.554 1.1733 6.6536m11.585 65.704 1.1732 6.6536" stroke="#FFFFFF" stroke-linecap="square" stroke-width="0.84706px" fill="none"></path><path d="m56.484 99.953 0.2945-3.3653m6.4037-73.194 0.2944-3.3653" stroke="#FFFFFF" stroke-linecap="square" stroke-width="0.84706px" fill="none"></path><path d="m49.629 98.788 0.8743-3.263m19.016-70.97 0.8743-3.263" stroke="#FFFFFF" stroke-linecap="square" stroke-width="0.84706px" fill="none"></path><path d="m43.024 96.33 1.4276-3.0616m31.052-66.59 1.4277-3.0616" stroke="#FFFFFF" stroke-linecap="square" stroke-width="0.84706px" fill="none"></path><path d="m36.978 92.875 1.9376-2.7672m42.143-60.186 1.9376-2.7672" stroke="#FFFFFF" stroke-linecap="square" stroke-width="0.84706px" fill="none"></path><path d="m31.658 88.369 2.3887-2.3886m51.954-51.954 2.3887-2.3886" stroke="#FFFFFF" stroke-linecap="square" stroke-width="0.84706px" fill="none"></path><path d="m27.141 83.051 2.7672-1.9376m60.186-42.143 2.7672-1.9376" stroke="#FFFFFF" stroke-linecap="square" stroke-width="0.84706px" fill="none"></path><path d="m23.653 76.966 3.0616-1.4277m66.59-31.052 3.0617-1.4276" stroke="#FFFFFF" stroke-linecap="square" stroke-width="0.84706px" fill="none"></path><path d="m21.24 70.41 3.263-0.8744m70.97-19.016 3.263-0.8743" stroke="#FFFFFF" stroke-linecap="square" stroke-width="0.84706px" fill="none"></path><path d="m20 63.507 3.3653-0.2944m73.194-6.4037 3.3652-0.2944" stroke="#FFFFFF" stroke-linecap="square" stroke-width="0.84706px" fill="none"></path><path d="m20.03 56.514 3.3653 0.2944m73.194 6.4037 3.3653 0.2944" stroke="#FFFFFF" stroke-linecap="square" stroke-width="0.84706px" fill="none"></path><path d="m21.19 49.657 3.2631 0.8743m70.97 19.016 3.263 0.8744" stroke="#FFFFFF" stroke-linecap="square" stroke-width="0.84706px" fill="none"></path><path d="m23.624 43.042 3.0616 1.4276m66.59 31.052 3.0616 1.4277" stroke="#FFFFFF" stroke-linecap="square" stroke-width="0.84706px" fill="none"></path><path d="m27.127 37.029 2.7671 1.9376m60.186 42.143 2.7672 1.9376" stroke="#FFFFFF" stroke-linecap="square" stroke-width="0.84706px" fill="none"></path><path d="m31.654 31.661 2.3887 2.3887m51.954 51.954 2.3887 2.3887" stroke="#FFFFFF" stroke-linecap="square" stroke-width="0.84706px" fill="none"></path><path d="m36.935 27.134 1.9376 2.7672m42.143 60.186 1.9376 2.7672" stroke="#FFFFFF" stroke-linecap="square" stroke-width="0.84706px" fill="none"></path><path d="m43.044 23.676 1.4276 3.0616m31.052 66.59 1.4277 3.0616" stroke="#FFFFFF" stroke-linecap="square" stroke-width="0.84706px" fill="none"></path><path d="m49.59 21.297 0.8743 3.263m19.016 70.97 0.8743 3.263" stroke="#FFFFFF" stroke-linecap="square" stroke-width="0.84706px" fill="none"></path><path d="m56.449 20.063 0.2944 3.3653m6.4037 73.194 0.2944 3.3652" stroke="#FFFFFF" stroke-linecap="square" stroke-width="0.84706px" fill="none"></path><path d="m91.222 33.87-34.71 22.211-27.785 30.15 34.879-21.704 27.616-30.656z" clip-rule="evenodd" fill="#FFFFFF" fill-rule="evenodd"></path><path d="m91.222 33.87-34.71 22.211 7.094 8.4453 27.616-30.656z" clip-rule="evenodd" fill="#FF3B30" fill-rule="evenodd"></path><defs><linearGradient id="aaa" x1="59.999" x2="59.999" y1="104.01" y2="15.992" gradientUnits="userSpaceOnUse"><stop stop-color="#1E6FF1" offset="0"></stop><stop stop-color="#28CEFB" offset="1"></stop></linearGradient><linearGradient id="aaa" x1="59.999" x2="59.999" y1="104.01" y2="15.992" gradientUnits="userSpaceOnUse"><stop stop-color="#1E6FF1" offset="0"></stop><stop stop-color="#28CEFB" offset="1"></stop></linearGradient><linearGradient id="aaa" x1="59.999" x2="59.999" y1="104.01" y2="15.992" gradientUnits="userSpaceOnUse"><stop stop-color="#1E6FF1" offset="0"></stop><stop stop-color="#28CEFB" offset="1"></stop></linearGradient><linearGradient id="aaa" x1="59.999" x2="59.999" y1="104.01" y2="15.992" gradientUnits="userSpaceOnUse"><stop stop-color="#1E6FF1" offset="0"></stop><stop stop-color="#28CEFB" offset="1"></stop></linearGradient><linearGradient id="aaa" x1="59.999" x2="59.999" y1="104.01" y2="15.992" gradientUnits="userSpaceOnUse"><stop stop-color="#1E6FF1" offset="0"></stop><stop stop-color="#28CEFB" offset="1"></stop></linearGradient></defs></svg>