<?xml version="1.0" encoding="iso-8859-1"?>
<!-- Uploaded to: SVG Repo, www.svgrepo.com, Generator: SVG Repo Mixer Tools -->
<svg height="800px" width="800px" version="1.1" id="Layer_1" xmlns="http://www.w3.org/2000/svg" xmlns:xlink="http://www.w3.org/1999/xlink" 
	 viewBox="0 0 502.691 502.691" xml:space="preserve">
<g>
	<path style="fill:#38454F;" d="M27.927,325.818L27.927,325.818C12.567,325.818,0,313.251,0,297.891V204.8
		c0-15.36,12.567-27.927,27.927-27.927l0,0c15.36,0,27.927,12.567,27.927,27.927v93.091
		C55.855,313.251,43.287,325.818,27.927,325.818"/>
	<path style="fill:#546A79;" d="M74.473,353.745L74.473,353.745c-15.36,0-27.927-12.567-27.927-27.927V176.873
		c0-15.36,12.567-27.927,27.927-27.927s27.927,12.567,27.927,27.927v148.945C102.4,341.178,89.833,353.745,74.473,353.745"/>
	<path style="fill:#38454F;" d="M474.764,176.873L474.764,176.873c15.36,0,27.927,12.567,27.927,27.927v93.091
		c0,15.36-12.567,27.927-27.927,27.927c-15.36,0-27.927-12.567-27.927-27.927V204.8C446.836,189.44,459.404,176.873,474.764,176.873
		"/>
	<path style="fill:#546A79;" d="M428.208,148.945L428.208,148.945c15.36,0,27.927,12.567,27.927,27.927v148.945
		c0,15.36-12.567,27.927-27.927,27.927s-27.927-12.567-27.927-27.927V176.873C400.281,161.513,412.848,148.945,428.208,148.945"/>
	<polygon style="fill:#BDC3C7;" points="148.942,297.895 353.742,297.895 353.742,204.804 148.942,204.804 	"/>
	<g>
		<path style="fill:#38454F;" d="M121.018,381.673L121.018,381.673c-15.36,0-27.927-12.567-27.927-27.927v-204.8
			c0-15.36,12.567-27.927,27.927-27.927s27.927,12.567,27.927,27.927v204.8C148.945,369.105,136.378,381.673,121.018,381.673"/>
		<path style="fill:#38454F;" d="M381.673,121.018L381.673,121.018c15.36,0,27.927,12.567,27.927,27.927v204.8
			c0,15.36-12.567,27.927-27.927,27.927c-15.36,0-27.927-12.567-27.927-27.927v-204.8
			C353.745,133.585,366.313,121.018,381.673,121.018"/>
	</g>
	<g>
		<path style="fill:#ECF0F1;" d="M223.418,214.109c0-5.139-4.17-9.309-9.309-9.309c-5.139,0-9.309,4.17-9.309,9.309
			c0,5.139,4.17,9.309,9.309,9.309C219.248,223.418,223.418,219.248,223.418,214.109"/>
		<path style="fill:#ECF0F1;" d="M260.655,214.109c0-5.139-4.17-9.309-9.309-9.309c-5.139,0-9.309,4.17-9.309,9.309
			c0,5.139,4.17,9.309,9.309,9.309C256.484,223.418,260.655,219.248,260.655,214.109"/>
		<path style="fill:#ECF0F1;" d="M297.891,214.109c0-5.139-4.17-9.309-9.309-9.309s-9.309,4.17-9.309,9.309
			c0,5.139,4.17,9.309,9.309,9.309S297.891,219.248,297.891,214.109"/>
		<path style="fill:#ECF0F1;" d="M242.036,232.727c0-5.139-4.17-9.309-9.309-9.309c-5.139,0-9.309,4.17-9.309,9.309
			c0,5.139,4.17,9.309,9.309,9.309C237.866,242.036,242.036,237.866,242.036,232.727"/>
		<path style="fill:#ECF0F1;" d="M279.273,232.727c0-5.139-4.171-9.309-9.309-9.309s-9.309,4.17-9.309,9.309
			c0,5.139,4.17,9.309,9.309,9.309S279.273,237.866,279.273,232.727"/>
		<path style="fill:#ECF0F1;" d="M223.418,251.345c0-5.139-4.17-9.309-9.309-9.309c-5.139,0-9.309,4.17-9.309,9.309
			c0,5.139,4.17,9.309,9.309,9.309C219.248,260.655,223.418,256.484,223.418,251.345"/>
		<path style="fill:#ECF0F1;" d="M260.655,251.345c0-5.139-4.17-9.309-9.309-9.309c-5.139,0-9.309,4.17-9.309,9.309
			c0,5.139,4.17,9.309,9.309,9.309C256.484,260.655,260.655,256.484,260.655,251.345"/>
		<path style="fill:#ECF0F1;" d="M297.891,251.345c0-5.139-4.17-9.309-9.309-9.309s-9.309,4.17-9.309,9.309
			c0,5.139,4.17,9.309,9.309,9.309S297.891,256.484,297.891,251.345"/>
		<path style="fill:#ECF0F1;" d="M223.418,288.582c0-5.139-4.17-9.309-9.309-9.309c-5.139,0-9.309,4.17-9.309,9.309
			c0,5.139,4.17,9.309,9.309,9.309C219.248,297.891,223.418,293.72,223.418,288.582"/>
		<path style="fill:#ECF0F1;" d="M260.655,288.582c0-5.139-4.17-9.309-9.309-9.309c-5.139,0-9.309,4.17-9.309,9.309
			c0,5.139,4.17,9.309,9.309,9.309C256.484,297.891,260.655,293.72,260.655,288.582"/>
		<path style="fill:#ECF0F1;" d="M297.891,288.582c0-5.139-4.17-9.309-9.309-9.309s-9.309,4.17-9.309,9.309
			c0,5.139,4.17,9.309,9.309,9.309S297.891,293.72,297.891,288.582"/>
		<path style="fill:#ECF0F1;" d="M242.036,269.964c0-5.139-4.17-9.309-9.309-9.309c-5.139,0-9.309,4.17-9.309,9.309
			s4.17,9.309,9.309,9.309C237.866,279.273,242.036,275.102,242.036,269.964"/>
		<path style="fill:#ECF0F1;" d="M279.273,269.964c0-5.139-4.171-9.309-9.309-9.309s-9.309,4.17-9.309,9.309s4.17,9.309,9.309,9.309
			S279.273,275.102,279.273,269.964"/>
	</g>
</g>
</svg>