<svg xmlns="http://www.w3.org/2000/svg" width="75" height="75"><path style="stroke:none;fill-rule:nonzero;fill:#b0cb28;fill-opacity:1" d="M23.64 33.406a2.01 2.01 0 0 1-2.011 2.008h-4.02a2.007 2.007 0 0 1-2.007-2.008v-14.07a2.01 2.01 0 0 1 2.007-2.012h4.02c1.11 0 2.012.903 2.012 2.012Zm0 0"/><path style="stroke:none;fill-rule:nonzero;fill:#ccd847;fill-opacity:1" d="M15.602 37.41v24.106a4.019 4.019 0 0 0 4.02 4.02h36.163c2.219 0 4.02-1.802 4.02-4.02V37.41L37.844 17.31Zm0 0"/><path style="stroke:none;fill-rule:nonzero;fill:#b0cb28;fill-opacity:1" d="M15.602 37.41v24.106a4.019 4.019 0 0 0 4.02 4.02h36.163c2.219 0 4.02-1.802 4.02-4.02V37.41L37.844 17.31Zm0 0"/><path style="stroke:none;fill-rule:nonzero;fill:#8fbb23;fill-opacity:1" d="M13.574 44.625a3.949 3.949 0 0 1-2.836-1.184 4.015 4.015 0 0 1 0-5.687l22.696-22.707c2.34-2.344 6.168-2.344 8.52 0l22.694 22.691c1.563 1.563 1.563 4.114 0 5.688-1.558 1.558-4.125 1.558-5.683 0l-21.27-21.242-21.285 21.27a4.038 4.038 0 0 1-2.836 1.171M29.715 65.535V53.477c0-4.5 3.465-8.043 7.906-8.043 4.426 0 8.04 3.601 8.04 8.043v12.058"/><path style="stroke:none;fill-rule:nonzero;fill:#c6d761;fill-opacity:1" d="M31.727 53.477c0-3.332 2.562-6.032 5.894-6.032a6.03 6.03 0 0 1 6.027 6.032v12.058H31.727Zm0 0"/><path style="stroke:none;fill-rule:nonzero;fill:#8fbb23;fill-opacity:1" d="M41.7 58.5a1.004 1.004 0 1 1-1.005-1.004c.555.016 1.004.465 1.004 1.004M43.71 35.398a6.032 6.032 0 0 1-12.063 0 6.032 6.032 0 0 1 12.064 0"/><path style="stroke:none;fill-rule:nonzero;fill:#c6d761;fill-opacity:1" d="M41.7 35.398c0 2.223-1.802 4.024-4.02 4.024a4.022 4.022 0 0 1 0-8.043c2.234 0 4.02 1.8 4.02 4.02"/></svg>