<?xml version="1.0" encoding="utf-8"?>
<!-- Uploaded to: SVG Repo, www.svgrepo.com, Generator: SVG Repo Mixer Tools -->
<svg width="800px" height="800px" viewBox="0 -33.67 260.8 260.8" xmlns="http://www.w3.org/2000/svg"><defs><style>.a{fill:#ffffff;}.b{fill:#c6c6c6;}.c{fill:#211715;}</style></defs><path class="a" d="M31.035,47.389c0-13.644-.01-26.287-.013-35.923a9,9,0,0,1,9-9.01c38.517-.011,148.451-.045,180.707-.056a8.991,8.991,0,0,1,9.01,9c.011,31.428.034,87.489.045,122.7q13.587,20.912,27.164,41.828a9.011,9.011,0,0,1,1.453,4.911c0,1.157,0,2.333,0,3.457a6.752,6.752,0,0,1-6.757,6.745H9.173A6.756,6.756,0,0,1,2.416,184.3c0-1.422-.011-2.711-.016-4.279a9.021,9.021,0,0,1,1.5-5.016q13.591-20.493,27.164-40.98C31.06,116.864,31.046,79.375,31.035,47.389Z"/><path class="a" d="M201.2,14.9c-42.537.014-129.908.047-156.393.053.012,30.259.033,66.229.046,98.757v8.179c30.339-.012,141.7-.054,171.144-.062-.013-32.725-.035-79.452-.046-106.932Z"/><path class="b" d="M221.46,146.673c-2.579-4.72-5.134-9.4-6.87-12.58H50.607c-3.322,6.284-10.271,19.472-14.01,26.455H229.039C227.2,157.186,224.317,151.9,221.46,146.673Z"/><path class="a" d="M95.925,167.362c-.994,4.52-2.233,10.221-2.914,13.6,13.191,0,59.652,0,75.2,0-1.1-5.406-3.616-16.793-4.269-19.71,0,0-.058-.26-.15-.7H97.436l-.157.7C97.034,162.343,96.524,164.638,95.925,167.362Z"/><path class="c" d="M33.435,47.389l-.012-34.081c0-2.025-.022-3.859,1.161-5.6a6.623,6.623,0,0,1,4.343-2.772,23.753,23.753,0,0,1,3.9-.081l3.652,0q19.931,0,39.861-.012l49.258-.015,47.771-.015L218.27,4.8a23.334,23.334,0,0,1,3.509.057,6.7,6.7,0,0,1,4.3,2.646,7.981,7.981,0,0,1,1.258,5.052q0,2.891,0,5.78,0,13.155.01,26.311.012,29.872.023,59.746l.009,27.1a12.954,12.954,0,0,0,.087,3.242,8.215,8.215,0,0,0,1.212,2.067l1.525,2.347q2.5,3.841,4.991,7.682l10.4,16,5.126,7.9q1.248,1.92,2.494,3.842a21.632,21.632,0,0,1,2.371,3.928,10.5,10.5,0,0,1,.416,3.825,9.663,9.663,0,0,1-.3,3.557,4.4,4.4,0,0,1-3.7,2.743c-.738.061-1.5.01-2.237.01H17.2c-2.669,0-5.345.059-8.013,0a4.4,4.4,0,0,1-3.084-1.27c-1.541-1.529-1.288-3.569-1.3-5.569a12.678,12.678,0,0,1,.288-3.755,15.7,15.7,0,0,1,2.282-3.936q2.592-3.907,5.187-7.813,5.256-7.916,10.51-15.833,2.522-3.8,5.038-7.606,1.258-1.9,2.515-3.807.7-1.057,1.4-2.115a8.861,8.861,0,0,0,1.359-2.267,10.231,10.231,0,0,0,.085-2.59l0-2.517q0-2.737,0-5.476,0-6.55-.005-13.1l-.012-31.326q-.006-16.133-.011-32.267c0-3.088-4.8-3.093-4.8,0q.012,36.3.026,72.6l.006,14.038L29,132.815Q17.139,150.8,5.194,168.727c-1.832,2.759-4.266,5.575-4.94,8.9a22.422,22.422,0,0,0-.246,4.595,17.307,17.307,0,0,0,.325,4.459,9.306,9.306,0,0,0,8.892,6.76c3.579.071,7.168,0,10.748,0H250.6c.33,0,.661.006.991,0a9.323,9.323,0,0,0,8.8-6.438,13.515,13.515,0,0,0,.411-4.175,17.943,17.943,0,0,0-.454-5.188,17.053,17.053,0,0,0-2.294-4.418l-3.048-4.7q-5.889-9.07-11.779-18.14-5.684-8.75-11.368-17.5l.328,1.211q-.006-20.806-.015-41.613-.007-22.569-.017-45.138,0-10.293-.008-20.586l0-9.365c0-2.927.373-6.182-.41-9.028a11.483,11.483,0,0,0-6.7-7.512c-2.211-.909-4.5-.853-6.841-.852l-10.957,0L177.47.014,141.484.025l-37.8.012L69.1.048,42.148.056c-2.826,0-5.531.119-8.025,1.644a11.5,11.5,0,0,0-5.4,8.4,43.234,43.234,0,0,0-.1,5.316l0,5.7q0,6.324,0,12.647,0,6.817.005,13.634C28.636,50.478,33.436,50.483,33.435,47.389Z"/><path class="c" d="M242.7,178.558H27.213c-2.91,0-5.828-.063-8.737,0-.125,0-.25,0-.374,0-3.089,0-3.094,4.8,0,4.8h215.49c2.91,0,5.828.064,8.737,0,.125,0,.249,0,.374,0,3.088,0,3.093-4.8,0-4.8Z"/><path class="c" d="M223.532,145.462q-3.436-6.289-6.87-12.581a2.4,2.4,0,0,0-2.072-1.188H70.843c-6.64,0-13.309-.18-19.948,0-.1,0-.192,0-.288,0a2.39,2.39,0,0,0-2.072,1.188c-4.664,8.822-9.3,17.658-14.01,26.456a2.425,2.425,0,0,0,2.072,3.611H221.189c2.507,0,5.022.062,7.528,0,.107,0,.215,0,.322,0a2.425,2.425,0,0,0,2.073-3.611q-3.787-6.939-7.58-13.875c-1.482-2.712-5.628-.292-4.145,2.422q3.79,6.938,7.58,13.876l2.072-3.612H44.447c-2.493,0-5.037-.146-7.528,0-.107.006-.215,0-.322,0l2.072,3.612c4.71-8.8,9.347-17.634,14.011-26.456l-2.073,1.189H207.868c2.13,0,4.307.131,6.434,0,.095-.006.192,0,.288,0l-2.073-1.189q3.432,6.292,6.87,12.58C220.869,150.6,225.015,148.176,223.532,145.462Z"/><path class="c" d="M95.325,181.594c1.334-6.588,2.8-13.151,4.269-19.71a2.454,2.454,0,0,0-1.677-2.952,2.426,2.426,0,0,0-2.952,1.676c-1.468,6.559-2.934,13.122-4.269,19.71a2.46,2.46,0,0,0,1.677,2.952,2.423,2.423,0,0,0,2.952-1.676Z"/><path class="c" d="M161.628,161.884c1.468,6.56,2.921,13.125,4.268,19.71a2.4,2.4,0,0,0,4.629-1.276c-1.347-6.585-2.8-13.15-4.269-19.71a2.4,2.4,0,1,0-4.628,1.276Z"/><path class="c" d="M201.2,12.5l-29.255.01-34.788.012-35.6.013-31.693.01-22.979.007H44.807a2.434,2.434,0,0,0-2.4,2.4q.009,23.213.021,46.424.014,24.238.024,48.478,0,6.016,0,12.034a2.436,2.436,0,0,0,2.4,2.4l25.919-.01,36.911-.014,41.175-.015,37.593-.014,27.3-.009H216a2.436,2.436,0,0,0,2.4-2.4l-.018-42.668q-.01-21.81-.019-43.62l-.009-20.644a2.435,2.435,0,0,0-2.4-2.4L201.2,12.5c-3.088,0-3.093,4.8,0,4.8l14.751,0-2.4-2.4q.008,19.463.017,38.926.009,22.329.019,44.657,0,11.675.01,23.349l2.4-2.4-25.5.008-36.694.013-41.163.015-37.784.014-27.693.011H44.853l2.4,2.4q-.017-16.422-.011-32.844l-.024-48.432q-.006-12.83-.011-25.66l-2.4,2.4L66.5,17.343l30.893-.011,35.377-.012,35.14-.013,30.055-.01h3.24C204.289,17.3,204.294,12.5,201.2,12.5Z"/></svg>