<svg xmlns="http://www.w3.org/2000/svg" width="75" height="75"><path style="stroke:none;fill-rule:nonzero;fill:#d60f31;fill-opacity:1" d="M20.594 32.805a2.807 2.807 0 0 1-2.805 2.804h-5.625a2.81 2.81 0 0 1-2.805-2.804A2.812 2.812 0 0 1 12.164 30h5.625a2.81 2.81 0 0 1 2.805 2.805M65.594 32.805a2.807 2.807 0 0 1-2.805 2.804h-5.625a2.81 2.81 0 0 1-2.805-2.804A2.812 2.812 0 0 1 57.164 30h5.625a2.81 2.81 0 0 1 2.805 2.805"/><path style="stroke:none;fill-rule:nonzero;fill:#eeb9c5;fill-opacity:1" d="M16.86 37.5V24.375c0-4.14 3.359-7.5 7.5-7.5h26.25c4.14 0 7.5 3.36 7.5 7.5V37.5"/><path style="stroke:none;fill-rule:nonzero;fill:#d60f31;fill-opacity:1" d="M20.61 45.945V56.25c0 1.035-.84 1.875-1.876 1.875H13.11a1.875 1.875 0 0 1-1.875-1.875V45.945M63.734 45.945V56.25c0 1.035-.84 1.875-1.875 1.875h-5.625a1.875 1.875 0 0 1-1.875-1.875V45.945M33.613 26.52c.364.359.364.96 0 1.335L25.41 36.06a.955.955 0 0 1-1.336 0 .958.958 0 0 1 0-1.332l8.207-8.207c.36-.36.946-.36 1.332 0M50.324 26.52c.36.359.36.96 0 1.335l-8.203 8.204a.955.955 0 0 1-1.336 0 .958.958 0 0 1 0-1.332l8.203-8.207a.962.962 0 0 1 1.336 0"/><path style="stroke:none;fill-rule:nonzero;fill:#d60f31;fill-opacity:1" d="M11.234 47.82v-7.5a4.678 4.678 0 0 1 4.68-4.68H59.04a4.673 4.673 0 0 1 4.68 4.68V52.5H11.234Zm0 0"/><path style="stroke:none;fill-rule:nonzero;fill:#921826;fill-opacity:1" d="M54.36 52.5h9.374v1.906H54.36ZM11.234 52.5h9.375v1.906h-9.375Zm0 0"/><path style="stroke:none;fill-rule:nonzero;fill:#eeb9c5;fill-opacity:1" d="M59.969 44.984c0 1.036-.84 1.875-1.875 1.875h-3.75a1.875 1.875 0 0 1-1.875-1.875v-3.75c0-1.035.84-1.875 1.875-1.875h3.75c1.035 0 1.875.84 1.875 1.875ZM22.469 45c0 1.035-.84 1.875-1.875 1.875h-3.75A1.875 1.875 0 0 1 14.969 45v-3.75c0-1.035.84-1.875 1.875-1.875h3.75c1.035 0 1.875.84 1.875 1.875Zm0 0"/><path style="stroke:none;fill-rule:nonzero;fill:#e57389;fill-opacity:1" d="M16.844 33.766h41.25v1.875h-41.25Zm0 0"/><path style="stroke:none;fill-rule:nonzero;fill:#921826;fill-opacity:1" d="M24.344 52.5v-5.625a5.619 5.619 0 0 1 5.625-5.625h15a5.616 5.616 0 0 1 5.625 5.625V52.5"/></svg>