<svg xmlns="http://www.w3.org/2000/svg" width="88" height="75" viewBox="0 0 87 75"><path style="stroke:none;fill-rule:nonzero;fill:#fbbc05;fill-opacity:1" d="M46.398 1.25c-1.656-1.668-4.14-1.668-5.796 0l-24.86 25c-1.656 1.668-1.656 4.168 0 5.832.828.836 1.863 1.25 2.903 1.25 1.035 0 2.07-.414 2.898-1.25l24.855-25c1.66-1.664 1.66-4.164 0-5.832Zm0 0"/><path style="stroke:none;fill-rule:nonzero;fill:#ff6b00;fill-opacity:1" d="m71.258 26.25-24.86-25c-1.656-1.668-4.14-1.668-5.796 0-1.66 1.668-1.66 4.168 0 5.832l24.855 25c.828.836 1.863 1.25 2.898 1.25 1.04 0 2.075-.414 2.903-1.25 1.656-1.664 1.656-4.164 0-5.832Zm0 0"/><path style="stroke:none;fill-rule:nonzero;fill:#4285f4;fill-opacity:1" d="M71.258 75H15.742a4.235 4.235 0 0 1-4.14-3.332L4.145 33.332h78.71l-7.664 38.336C74.777 73.543 73.121 75 71.258 75Zm0 0"/><path style="stroke:none;fill-rule:nonzero;fill:#65c;fill-opacity:1" d="M82.855 37.5H4.145C1.863 37.5 0 35.625 0 33.332v-4.164C0 26.875 1.863 25 4.145 25h78.71C85.137 25 87 26.875 87 29.168v4.164c0 2.293-1.863 4.168-4.145 4.168Zm0 0"/><path style="stroke:none;fill-rule:nonzero;fill:#fff;fill-opacity:.8" d="M35.191 43.516c-5.351 0-9.691 4.386-9.691 9.797 0 4.773 3.398 8.777 8.07 9.703.653.129.453.406.407.746-.114.785.027 1.82 1.55 1.715 4.649-.329 9.36-6.965 9.36-12.165 0-5.41-4.34-9.796-9.696-9.796Zm-.015 14.62c-2.68 0-4.856-2.199-4.856-4.91 0-2.71 2.176-4.91 4.856-4.91 2.683 0 4.86 2.2 4.86 4.91 0 2.712-2.177 4.91-4.86 4.91Zm10.617 3.466a1.222 1.222 0 0 1-.7-1.11c0-.234.063-.449.177-.637l.117-.18a12.19 12.19 0 0 0 1.797-6.386c0-2.34-.657-4.527-1.793-6.379l-.106-.164a1.233 1.233 0 0 1-.183-.652c0-.5.293-.93.718-1.121l2.285-1.047a1.203 1.203 0 0 1 1.54.48l.097.164a17.177 17.177 0 0 1 1.528 3.399l.042.14c.06.18.157.352.301.493.473.48 1.239.48 1.711 0l4.703-4.743a1.196 1.196 0 0 1 1.711 0l1.719 1.735a1.233 1.233 0 0 1 0 1.73l-4.176 4.215a2.464 2.464 0 0 0 0 3.465l4.223 4.266a1.233 1.233 0 0 1 0 1.73l-1.715 1.742a1.2 1.2 0 0 1-1.715 0l-4.75-4.765a1.207 1.207 0 0 0-2.02.52l-.05.155a16.92 16.92 0 0 1-1.54 3.399l-.085.144a1.2 1.2 0 0 1-1.555.457Zm0 0"/></svg>